/* XPM */
static char *_0c954c83a2043619afda9cb0b27e0cb16sPnFyxIGWwK5PV[] = {
/* columns rows colors chars-per-pixel */
"58 58 135 2 ",
"   c None",
".  c #171715",
"X  c #171815",
"o  c #191916",
"O  c #1C1C1A",
"+  c #1F201C",
"@  c #21211E",
"#  c #242522",
"$  c #272824",
"%  c #292926",
"&  c #2D2D2A",
"*  c #2F302C",
"=  c #31312E",
"-  c #353532",
";  c #373835",
":  c #393A36",
">  c #3C3D3A",
",  c #3F403C",
"<  c #41413E",
"1  c #454542",
"2  c #494946",
"3  c #4C4C49",
"4  c #4F504C",
"5  c #51514E",
"6  c #545552",
"7  c #575854",
"8  c #595956",
"9  c #5D5D5A",
"0  c #5F605C",
"q  c #61615E",
"w  c #646562",
"e  c #676864",
"r  c #696966",
"t  c #6C6C6A",
"y  c #6F706C",
"u  c #71716E",
"i  c #757572",
"p  c #777874",
"a  c #797976",
"s  c #7C7D7A",
"d  c #7F807C",
"f  c #81827E",
"g  c #848582",
"h  c #878884",
"j  c #898985",
"k  c #8D8D8A",
"l  c #91918D",
"z  c #949492",
"x  c #979894",
"c  c #999A96",
"v  c #9B9C99",
"b  c #A1A19E",
"n  c #A5A5A2",
"m  c #A7A8A3",
"M  c #A9AAA6",
"N  c gray67",
"B  c #AAAAA9",
"V  c #ADADAB",
"C  c #B1B2AE",
"Z  c #B3B3B0",
"A  c #B1B1B2",
"S  c #B2B2B2",
"D  c #B4B4B3",
"F  c #B5B5B3",
"G  c #B5B6B3",
"H  c #B6B6B2",
"J  c #B6B7B2",
"K  c #B6B6B3",
"L  c #B6B6B6",
"P  c #B5B5B2",
"I  c #B7B8B5",
"U  c #B9BAB5",
"Y  c #B8B8B7",
"T  c #B9BAB6",
"R  c #B6B6B8",
"E  c #B8B7B8",
"W  c #B8B8BA",
"Q  c #BCBCB9",
"!  c #BCBDBB",
"~  c #BEBFBA",
"^  c #BEBEBB",
"/  c #BFBFBB",
"(  c #BDBDBC",
")  c #BEBEBC",
"_  c #BEBFBC",
"`  c #BFBFBD",
"'  c gray75",
"]  c #BCBCBC",
"[  c #C2C2BF",
"{  c #C3C4BF",
"}  c #C1C2BE",
"|  c #C0C0C1",
" . c #C3C3C0",
".. c #C4C4C2",
"X. c #C4C5C2",
"o. c #C5C5C2",
"O. c #C6C6C2",
"+. c #C5C5C4",
"@. c #C5C5C5",
"#. c #C4C4C3",
"$. c #C9C9C4",
"%. c #C9CAC5",
"&. c gray79",
"*. c #CBCBC9",
"=. c #C9C9CA",
"-. c #CCCDC8",
";. c #CDCDCD",
":. c #CCCCCB",
">. c #D1D2CE",
",. c #D4D4D1",
"<. c #D4D3D4",
"1. c #D5D5D5",
"2. c #D4D4D3",
"3. c #DADAD7",
"4. c #DDDDD9",
"5. c #DFDFDF",
"6. c #DCDCDB",
"7. c #E0E0DE",
"8. c #E1E2DE",
"9. c #E2E3DE",
"0. c #E6E6E3",
"q. c #E6E7E3",
"w. c #E4E4E3",
"e. c #E9E9E6",
"r. c #EAEAE6",
"t. c #E8E7E8",
"y. c #EBEBEC",
"u. c #ECECEA",
"i. c #F0F1EC",
"p. c #F3F3F3",
"a. c #F4F3F1",
"s. c #F3F3F3",
"d. c #F8F7F7",
"f. c #F8F8F7",
"g. c #F9FAF6",
/* pixels */
"        2 - 3 y p k 1.y.c t w t q s f n E g [ D k ^ _ _ +.S B *.z z  .*._ s g S :.l ] S n S <.;.z p t 2 k O.        ",
"        o o o o o o $ e.t o o O o o O ; n v @ O o o @ o o O o o o o o & $ o o o > a 2 o # o & 8 5 2 r - t r         ",
"        o o o o o o r p.; o o o o o o & O.u o o o o o o o o o o o o o o o o o o o ^ 1 o o o o o o o t q o o         ",
"        o o o o o o $ O.< o o o o o o # *.c o o o o o o o o o o o o o o o o o o o %.: o o o o o o o h 0 o o         ",
"        o o o o o o - 8.7 O o O o o o o *.O.o o o o o o o o o o o o o o o o o o o D < o o o o o o o k 9 o o         ",
"        o o o o o o o n - o o @ O o o o O.+.o o o o o o o o o o o o o o o o o o o  .w o o o o o o o p i o o         ",
"        o o o o o o o D # o o o o O o = k ,.o o o o o o o o o o o o o O o o o O o v t o o o o o o o p a o o         ",
"        r s 6 6 p n _ c q + o $ 6 2 6 b ^ ^ 1 3 = o o o o o o $ o o o o = 6 + O o a t y 7 = - & + o w g o o         ",
"        q s g - > O & < i w u r 1 p 9 6 2 9 : q g U L M g d q 9 t p k x t ^ k 7 q a - w 6 w f n [ *.5.q._ +.        ",
"        o D n o o o o o o o o o o o o o o o o o o @ n D 1 o o o o O # k o # o o o # $ o o o O $ $ $ > 6 = r         ",
"        # 8.c o o o o o o o o o o o o o o o o o o o f s @ o o o o o o v $ o o o o o o o o o o o o o o o o o         ",
"        & f.c o o o o o o o o o o o o o o o o o o o h 8 o O o o o o o k o o o o o o o o o o o o o o o o o o         ",
"        o q.w o o o o o o o o o o o o o o o o o o o x - o o o o o o o f o o o o o o o o o o o o o o o o o o         ",
"        & a.s o o o o o o o o o o o o o o o o o o o n & o o o o o o o g o o o o o o o o o o o o o o o o o o         ",
"        O 4.f o o o o o o o o o o o o o O o o o o o s = o o o o o o o 4 o o o o o o o o o o o o o o o o o o         ",
"        9 U k g 6 - 2 w e 1 < O 9 p u r a g 9 9 e a D B & & - o o o 3 k 1 o o o o o o o o o o o o $ o o o o         ",
"        B h I y.:.n U ,.+.>.h q a 3 : s n l @.V g a B i g q e f f x b L D s l B g 2 & $ - - - g z c a o = 9         ",
"        = - O > o o o # t 4.@ o o o O . o o *.> 1 & & & o o . O > 6 t e < & @ # < 1 b c 5 & & O # : 5 6 9 w         ",
"        o o o o o o o - ^ y.o o o o o o o o %.$ O # # O o o o o o o o O O o o # O O f g @ o o o o o @ x w o         ",
"        o o o o o o o 1 M w.o o o o o o o o C O o o o o o o o o o o O o o o o o o @ s x o o o o o o o p f o         ",
"        o o o o o o o ; q.*.o o o o o o o & D O o o o o o o o o o o o o o o o o # # a f o o o o o o o p h o         ",
"        o o o o o o o < u.^ o o o o o o o = C o o o o o o o o o o o o o o o # o o o s s o o o o o o o g p o         ",
"        o o o o o o o > O.z o o O o o o o , v o o o o o o o o o o o o o o o o o o o r f o o o o o o o 0 0 o         ",
"        o o o o o o o 5 V z o o o o o o o O 6 o o o o @ @ o o o o X o o o o o o o O 1 D c b n n b s t 9 - o         ",
"        f x h h t > 9 k B B 6 q t p - w & 5 3 o o o O $ 1 7 g n V k p p w e s v 6 s c _ ,._ +.;.w.5.w.w.l =         ",
"        f 6.] r u f g f 6 c b c v C M k s c x 3 & O 7 i n D n t w p x a # p l k g c w 7 6 w 7 r < 3 6 8 x g         ",
"        # q.r o o o o & o o o $ o o o @ # = O # O $ g $ @ o o o o o o 9 1 o o o o o o o o o o o o o o o o o         ",
"        # 8.2 o o o o o o o o o o o o o o o @ & 2 o k o o o o o o o o u 2 o o o o o o o o o o o o o o o o o         ",
"        - f.9 o o o o o o o o o o $ o O o o o o o & s o o o o o o o o p j o o o o o o o o o o o o o o o o o         ",
"        - e.2 o o o o o o o o o o O O o o o o $ o O g o o o o o o o o q B o o o o o o o o o o o o o o o o o         ",
"        O :.5 o o o o o o o o o o o o o o o o o o o i o o o o o o o o 7 V o o o o o o o o o o o o o o o o o         ",
"        & x 1 o o o o o o o o o o o O o o o o o o o h o o o o o o o o < c o o o o o o o o o o o o o o o o o         ",
"        3.C q O & w 7 w @ o o o o o o o o & f h h x ,.7 O o o o o O o - Q 5 o o o o o o o o o o o $ o o o o         ",
"        d.5.1.w.w.t.w.w.p.U l c l p w p x V B V C a s m _ 1.,.5.;.U L n M l C V n M U :.,._  .V c C g p 3 #         ",
"        7 3 5 7 h ,.c w 2 2 9 - 1 < 6 ;.r e p k x q l v g i p p h x n *.+.;.D v 3.O.c g s u w u a g ] h q 6         ",
"        o o o o # >.< o o o o o o o o ] @ o o o O o o o o o o o O o o o o O o O U < o o o o o o o o _ p o o         ",
"        o o o o O Q 7 o o o o o o o o >.& o o o o o o o o o o o o o o o # o o o U @ o o o o o o o o ;.s o o         ",
"        o o o o & 3.q o o o o o o o o h o o o o o o o o o o o o o o o o o o o o C o o o o o o o o O U y o o         ",
"        o o o o ; ;.7 o o o o o o o o r o o o o o o o o o o O o o o o o o o o o n O o o o o o o o O [ 6 o o         ",
"        o o o o > q.6 o o o o o o o o q o o o o o o o o o o o o o o o o o o o o %.- o o o o o o o o n 5 o o         ",
"        o o o # 2 w.> o o o o o o o # h o o o o o o o o o o o o o o o o o o o 2 O.: o o o o o o o $ v 2 o o         ",
"        u p g n  .6.M s g  .D p g f 1.n 7 ; = 6 e = o & $ o o O 1 w O o o o t [ 6.e 6 w e a r f M w.1.9 1 -         ",
"        n B S p f n B i.C  .Q ,.:.d.,.6.u.y.p.s.[ D D 1.y.*.%.8.u.[ D k c M u.y.w.S y.y.t._ +.V h ] +.%.n 4.        ",
"        n 3.z O o O X o o o o O - 1 7 r 9 > & O & 7 n > 5 - : : - * @ h R O o @ o & > > 1 w e w 3 ; = > : 1         ",
"        3 3.c o o o o o o o o o o o o o o o o o o > *.# o o o o o o o r s o o o o o o o o o O o o o O o o o         ",
"        & n 2 O o o o o o o o o o o o o o o o o o o C > o o o o o o o r e o o o o o o o o o o o o o o o o o         ",
"        = B 3 o o o o o o o o o o o o o o o o o o O B & o o o o o o o l f o o o o o o o o o o o o o o o o o         ",
"        6 3.3 o o o o o o o o o o o o o o o o o o @ 4.- o o o o o o o t v o o o o o o o o o o o o o o o o o         ",
"        = %.2 o o @ o o o o o o o o o o o o o o o o q.@ o o o o o o o 6 >.o o o o o o o o o o o o o o o o o         ",
"        < O.: o o $ > o o o o o o o o o O o O o o &  .# o o o o o o o > p O # o o o o o o o o o o o o o o o         ",
"                                                                                                                    ",
"                                                                                                                    ",
"                                                                                                                    ",
"                                                                                                                    ",
"                                                                                                                    ",
"                                                                                                                    ",
"                                                                                                                    ",
"                                                                                                                    "
};
