/* XPM */
static char *_2724e02d7e1423089aee3f441ca03c9PN4GpIwRccaqEVH3[] = {
/* columns rows colors chars-per-pixel */
"50 50 186 2 ",
"   c None",
".  c #001633",
"X  c #011936",
"o  c #031D3B",
"O  c #081F3D",
"+  c #07203D",
"@  c #09213D",
"#  c #062243",
"$  c #0B2544",
"%  c #0D2B46",
"&  c #062849",
"*  c #0C2A4B",
"=  c #112A47",
"-  c #122D4C",
";  c #15304F",
":  c #122F50",
">  c #0B3258",
",  c #143255",
"<  c #1A3454",
"1  c #133758",
"2  c #1A375B",
"3  c #14385A",
"4  c #1E3B5B",
"5  c #203B5B",
"6  c #183E61",
"7  c #263F60",
"8  c #1D4264",
"9  c #1E4569",
"0  c #244265",
"q  c #2A4464",
"w  c #224369",
"e  c #29466A",
"r  c #24486D",
"t  c #2B496E",
"y  c #244B72",
"u  c #2C4D73",
"i  c #2A4F78",
"p  c #314D72",
"a  c #2E5276",
"s  c #2D527A",
"d  c #335276",
"f  c #3A5577",
"g  c #33557C",
"h  c #3A567A",
"j  c #36597D",
"k  c #3C5A7D",
"l  c #405A7F",
"z  c #355C85",
"x  c #3B5D81",
"c  c #3F6186",
"v  c #3D638B",
"b  c #3C688D",
"n  c #3C6692",
"m  c #326A95",
"M  c #3E6A93",
"N  c #3E6C9C",
"B  c #3F75A7",
"V  c #405B81",
"C  c #436285",
"Z  c #486387",
"A  c #42648B",
"S  c #4A658C",
"D  c #45698E",
"F  c #4C6A8D",
"G  c #536B8E",
"H  c #406792",
"J  c #496791",
"K  c #436B92",
"L  c #4B6D94",
"P  c #436C98",
"I  c #4A6F9A",
"U  c #506D94",
"Y  c #556F9B",
"T  c #4D7196",
"R  c #45739A",
"E  c #4D729B",
"W  c #547296",
"Q  c #5A7295",
"!  c #53729B",
"~  c #5B759D",
"^  c #5B799E",
"/  c #61799F",
"(  c #4775A1",
")  c #4D76A0",
"_  c #4A7AA7",
"`  c #4F77A8",
"'  c #5375A1",
"]  c #5976A1",
"[  c #5479A2",
"{  c #5B7BA3",
"}  c #557BAC",
"|  c #5B7DAD",
" . c #537CB1",
".. c #587AB0",
"X. c #627DA5",
"o. c #697DA7",
"O. c #607EAE",
"+. c #5980A7",
"@. c #5686AA",
"#. c #5C83AB",
"$. c #5989AE",
"%. c #5581B6",
"&. c #6380A6",
"*. c #6483AC",
"=. c #6C86AB",
"-. c #6C89AE",
";. c #6385B2",
":. c #6B86B1",
">. c #658AB4",
",. c #6C8BB4",
"<. c #668CBA",
"1. c #6D8DBA",
"2. c #738DB5",
"3. c #7A8EB6",
"4. c #748DBA",
"5. c #788CBA",
"6. c #6D92BE",
"7. c #7491B7",
"8. c #7493BC",
"9. c #7C95BD",
"0. c #769ABF",
"q. c #7B98BF",
"w. c #6F92C3",
"e. c #7796C2",
"r. c #7B96C2",
"t. c #7D9AC3",
"y. c #7E9ECC",
"u. c #8196BE",
"i. c #8099BF",
"p. c #8197C0",
"a. c #839BC5",
"s. c #849EC9",
"d. c #899FC9",
"f. c #85A2CC",
"g. c #88A3CF",
"h. c #89A3CD",
"j. c #8DA1CF",
"k. c #8AA1CC",
"l. c #87A3D0",
"z. c #8AA2D0",
"x. c #8AA6D0",
"c. c #8DA5D1",
"v. c #8FA4D1",
"b. c #8EA7D1",
"n. c #8DA5D1",
"m. c #8FAAD2",
"M. c #8FA8D1",
"N. c #91A3D1",
"B. c #92A3D0",
"V. c #91A5D1",
"C. c #91A7D1",
"Z. c #93A7D2",
"A. c #95A7D1",
"S. c #97A7D1",
"D. c #95A7D2",
"F. c #97A7D2",
"G. c #94A7D1",
"H. c #99A5D1",
"J. c #98A7D2",
"K. c #9DA6D2",
"L. c #99A6D2",
"P. c #93A8D1",
"I. c #91A9D2",
"U. c #92A8D2",
"Y. c #93A8D2",
"T. c #93A9D2",
"R. c #92A9D2",
"E. c #90ABD2",
"W. c #91ABD2",
"Q. c #90ABD3",
"!. c #92AAD2",
"~. c #91A8D1",
"^. c #94A8D2",
"/. c #95A8D2",
"(. c #94A9D2",
"). c #95A9D2",
"_. c #96A8D2",
"`. c #97A8D2",
"'. c #96A9D2",
"]. c #94AAD2",
"[. c #95ABD2",
"{. c #96AAD3",
"}. c #90ACD3",
"|. c #95A9D2",
" X c #98A8D2",
".X c #99AAD2",
/* pixels */
"^.t.. . k ^.^.^.^.h . ; F.^.!.8.E t.t.t.t.t.t.t.p.*.. . J ^.^.^.=.9.9.Q V.^.^.^.^.^.^.^.^.^.4.4 p.^.",
"^.V.= . k ^.^.^.u.F Z 8.^.^.^.^.f.1.4.4.5.5.4.1.1.*.O . ^ ^.^.^.=.#.[ >.1.^.^.^.!.b.^.^.^.^.^.8.^.^.",
"!.!.b.k.9.W ^.^.E ^.^.^.^.^.^.^.^.^.^.^.^.^.^.^.>.V.a.8.^.^.^.^.=.q.^.^._ 8.!.h.8 . I b.^.^.^.^.^.^.",
"!.!.}.^.^.9.{ ^.| F.^.^.^.^.^.^.^.^.^.^.^.^.^.^.k.P B.^.^.^.^.^.=.9.^.^.!.| ! x X . 1 c P >.^.^.^.^.",
"!.m.!.^.^.^.E ^.| ^.^.^.^.^.^.^.^.^.^.^.^.^.b.h.^.t.*.^.^.^.^.^.~ :.^.^.^.^.^.H.{ d 9.^.^.| ,.^.^..X",
"w t k.^.^.^.E ^.| ^.^.^.^.^.^.^.^.^.^.!.^.h.- . ! p.{ ^.^.^.^.^.=.i.^.^.^.F.e.j.^.^.^.^.^.^. .1.H.u.",
". . y u.^.^.E ^.| ^.^.^.^.^.^.^.^.^.! E E K X . p V.{ 2.^.^.^.^.=.q.^.^.^.z.o q !.^.^.^.^.^.F.| m > ",
"- , +.:.^.!.i ^.| ^.^.^.^.^.^.^.^.{ 2.^.^.^.T 4 2.^.H.[ 7.^.^.^.=.9.^.^.^.!.t ! ^.^.^.^.^.^.^.a.T 9.",
"!.!.9.8.^.^.E !.v ^.^.^.^.^.^.^.;.>.^.^.^.^.^.k.E j.K.F.{ 7.^.^.=.u.^.^.^.^.^ z.^.^.^.^.^.^.f.L ^.^.",
"!.!.0.9.^.^.E !.I ^.^.F.E X.!.>.#.^.^.^.^.^.^.^.k.R B.H.^.] 8.^.=.u.^.^.^.^.^ z.^.^.^.^.^.f.F ^.^.^.",
"!.!.0.9.^.^.! ^.| ^.^.W . . L { ^.^.^.^.^.^.^.^.^.d.L | p.F.[ 8.=.u.^.^.^.^.L b.!.^.V.^.z.D ^.^.^.^.",
"!.!.0.9.^.^.! ^.| ^.^.X.. O 8.^.^.^.^.^.b.!.^.^.^.^.~ . p ^.!.! =.9.^.^.!.[ 9.k.T *.*.*.~ ^.^.^.^.^.",
"!.!.0.9.^.^.! ^.| ^.^.;.] t.^.^.^.^.^.4.# , d.F.^.^.1.< ;.^.!.! =.9.^.^.^ 3.v.N b.^.^.^.^.a.S u.^.^.",
"!.!.0.9.^.^.E ^.| ^.^.a.!.^.^.^.^.^.^.S . . D @.@.@.[ b.^.^.F.! / ,.!.^ 3.F.R s.^.^.^.!.t., . 4 4.a.",
"8.!.q.8.^.^.E ^.| ^.^.^.^.^.^.^.^.^.q.F e A V.^.^.^.X.!.^.^.V.Y =.i.F.` ^.=.2.^.^.^.!.X.[ 8 . r 6.W ",
"n a.9.9.^.F.y !.| ^.^.^.^.^.^.^.^.t.W ^.^.7.-.-.-.E 8.^.^.^.F.! =.q.F...^.X.a.^.^.^.o.,.F.k.=.V.^.!.",
". # E &.^.^.E ^.| ^.^.^.^.7.t.^.a.E !.^.{ >.y.y.y.b.^.^.^.^.{ 2.=.q.F.} ^.X.a.^.^.*.;.^.^.^.k.y.s.U ",
". . U V.^.^.E ^.O.^.^.^.Q . @ { E ^.!.{ ,.^.^.^.^.F.A 0 r.{ 8.^.=.q.F.} ^.X.a.^.F.E ^.^.^.,.I { X.p ",
"T { ^.^.^.^.E H.| ^.^.^.J . . 8.^.!.{ ,.^.^.{ E E b . . y 8.^.^.=.u.F.} F.Q 2.^.F.! ^.^.a.} ^.^.^.k.",
"!.!.!.^.^.^.E ^.| ^.^.^.j.f &.F.^.>.:.^.^.*.<.^.^.h.u < 9.^.^.^.=.9.F.} ^./ e.^..X! ^.^.,.s.^.^.^.^.",
"!.!.!.^.^.^.L ^.| ^.^.^.^.W F.^.^.} F.^.<.*.^.^.^.^.F.!.^.^.^.^.=.u.F.} ^.X.a.^.^.' ^.^.t.j.^.^.^.^.",
"!.}.}.^.^.#.*.^.} ^.^.^.^.p.! ^.^.} F.6.| ^.^.^.^.^.^.^.^.^.^.^.u S 9.A F.o.a.^.*.~ b.^.^.^.^.^.^.^.",
"!.^.f.a.;.>.^.^.1.[ ^.^.^.^.! F.^.} F.F !.^.^.^.^.^.^.^.^.^.^.^.= w F. .F.o.a.2.. . V -.-.a.^.^.^.^.",
"^.9.O # E ^.^.^.^.8.Q F.^.^.! H.^.} V.a : Z F.^.^.^.^.^.^.^.^.^.k.k.F.} ^.:.8.a.# . J 8.8.( a.^.^.^.",
"^.X.. . ^ ^.^.^.^.^.8.W !.^.! H.^.} F.0 . * E ! ! L u.^.^.^.^.^.^.^.F.} ^.^.Q 0.9.2.^.^.^.b.B s.^.^.",
"^.!.C k W !.^.^.^.a.b.9.W !.Q ^.^.} V.*.4 G ^.^.^.!.L k.^.^.^.^.^.^.!.D !.^.!.2.^.^.^.^.^.^.v.[ ^.^.",
"!.^.0.9.u.Q V.^.F.* a a.9.^ g b.^.} V.^.^.^.^.^.^.^.>.s.^.^.^.^.^.^.^.u.{ 9.p ,.^.^.^.^.^.^.^.Q ^.^.",
"!.^.0.9.^.9.^ ^.b.d e.!.^.! ! F.^.w.%.b.^.^.^.^.^.a.s Z V.^.^.^.^.^.^.^.v 2 . > V.^.^.^.^..X[ 2 u.^.",
"0.^.0.9.^.^.E ^.U a.^.^.^.{ ! H.^.^.j : e.^.F.#.( w . . 2.^.^.k.4.^.^.^.F.U # f ^.^.^.^.^.b.X . 6 #.",
"Q 9.9.9.^.^.E ^.| ^.^.^.^.!.! F.^.^.G < 9.F.Q 8.!.X.$ - p.^.^.L . ,.^.^.^.F.h.!.^.^.^.^.^.t.3 o ! V.",
"^.! 0.9.^.^.E ^.| ^.^.^.^.^.X.8.^.^.^.^.!.~ 8.^.^.^.f.k.^.^.b.M p M u.^.^.^.^.^.^.^.^.^.t.T !.s.!.^.",
"!.! 0.9.^.^.H !.} ^.^.^.d.8.!.[ 8.^.^.^.%.<.^.^.^.^.^.^.^.!.W 9.F.!.-.^.^.^.^.^.4.9.^.k.N ^.^.^.^.^.",
"!.' 0.9.^.F.g ^.i M b.a.O . X.F.[ 9.^.^.! ^.^.^.^.^.^.^.^.W 9.^.^.^.^.^.^.^.!.*.. o <.b !.^.^.^.^.^.",
"!.! 0.9.^.^.E !.K d.F D . . A ^.F.[ t.^.! ^.^.^.^.^.F.^.Q S 4.^.^.^.^.^.^.^.T g . . { V.^.^.^.^.^.^.",
"!.! 0.9.^.^.E ^.| ^.^.^.~ c *.b.^.9.-.^.I ^.^.^.!.Q ! U =.X 0 ^.^.^.^.^.F.! 9.^.~ *.^.^.^.^.^.^.F.^.",
"m.! 9.,.^.H.! ^.| ^.^.^.^.^.^.^.^.9.-.h.9 d.^.^.s.;.^.^.2.L b a.^.^.^.!.E 9.^.^.^.^.^.^.^.^.^.F.c s.",
"h.x =.$ 8.^.! ^.| ^.^.^.^.^.^.^.^.F d.e . 4 V.^.| 9.^.^.^.^.b.F a.u.0 r 8.^.^.^.^.^.^.^.^.^.^.&.. Z ",
"!.! ^ X ,.^.! ^.O.^.^.^.^.!.!.^.L a.^.0 . < V.^.W ^.f.s.^.^.^.^.L y . . 9.^.^.^.^.^.^.^.^.^.^.f.0 a.",
"!.4.^.} ^.^.! ^.| ^.^.^.| O u ! a.^.^.p.E s.^.^.W 4.O $ e.^.b.t.F.2.@ & b.^.^.^.^.^.^.^.^.^.m.b V.^.",
"^.^.^.t.^.^.! ^.| ^.^.^.f . o t.^.^.^.^.^.^.^.^.W { . . z &.V.E t.F.V.p.R V.^.^.!.F.^.^.^.!.A b.^.^.",
"^.^.^.^.^.^.! !.g ^.^.^.a.k { ^.^.^.^.^.^.^.^.k.I V.U Q F.;.&.F.L a.F.^.u.R V.d.< - a.V.!.A z.F.!.^.",
"~ ^.^.^.^.^.E ^.| ^.^.^.^.^.^.^.^.^.^.^.^.^.z.M k.^.^.^.^.^.$.X.!.L a.^.^.u.E v . . j k z k.H.H.w # ",
"d ^.^.^.^.^.v ^.| ^.^.^.^.^.^.^.^.^.^.t.W r.L s.^.^.^.^.^.^.!.#.8.F.J a.^.^.^.!.Z k V.F.W 9.H.d.. . ",
"A d.^.^.^.V.z ^.| ^.^.^.^.^.^.^.^.^.^.5 . % a.^.^.^.^.^.^.^.^.w.5.H.F.F s.^.^.^.^.^.^.^.^.W p.F.F t ",
"F.F.^.^.^.^.E ^.| ^.^.^.^.^.^.^.k.^.F.0 . < !.^.^.^.^.^.^.^.b.c u j.^.^.D d.^.^.^.^.^.U d V.L p.^.^.",
"^.^.^.^.^.^.E F.| ^.^.!.*.^.^.^.t.E F.k.~ C ! W S C ! ! ! Y k . . S ^.^.!.K ^.^.^.^.^.w X f.^.E ^.^.",
"!.^.^.^.^.^.E F.| ^.^.! . U ^.^.^.0.E ^.^.!.!.!.l.t.!.!.!.!.t.$ + 8.^.^.b.d ~ ^.^.^.8. .f.^.^.~ ^.^.",
"!.^.^.^.^.m.b ^.| ^.^.a.l I ^.^.^.^.9.! ^.^.^.^.F.^.^.^.^.^.^.V.b.^.k.{ k . . k ^ ^ W ^.^.^.^.! ^.^.",
"!.^.^.^.!.M k.^.I !.b.F.^.8.E ^.^.^.^.9.) } | } } ' k.^.^.^.^.^.^.k.K h.*.. O :.h.z.^.^.^.^.V.K ^.^.",
"^.^.A t n d.^.^.z.u X a F.!.9.E !.^.^..X^.^.^.^.^.z.s S b.^.^.^.s.K m.^.^.t.a.^.^.^.^.^.^.^.S . X.^.",
};
