/* XPM */
static char *_f0a8e072b004c50b992b07cf515dc05oGffsb0LN4kjoE3o[] = {
/* columns rows colors chars-per-pixel */
"50 50 163 2 ",
"   c #151515",
".  c #181717",
"X  c #181817",
"o  c #1E1719",
"O  c #1C1B1C",
"+  c #240D16",
"@  c #29141C",
"#  c #211B1D",
"$  c #1F1F20",
"%  c #231F20",
"&  c #2F1921",
"*  c #331B24",
"=  c #391F28",
"-  c #242324",
";  c #2A2427",
":  c #272728",
">  c #2B2B2B",
",  c #36242A",
"<  c #36262B",
"1  c #3C242C",
"2  c #32292D",
"3  c #2F2F30",
"4  c #3D2C32",
"5  c #333434",
"6  c #383837",
"7  c #373738",
"8  c #3C3739",
"9  c #3B3B3B",
"0  c #432D34",
"q  c #4C2E37",
"w  c #45343A",
"e  c #4B353C",
"r  c #423D3F",
"t  c #49393D",
"y  c #51363E",
"u  c #40403F",
"i  c #3F3F40",
"p  c #4D3B42",
"a  c #533C43",
"s  c #3F4041",
"d  c #444344",
"f  c #4D4145",
"g  c #474848",
"h  c #4B4B4C",
"j  c #524146",
"k  c #54444A",
"l  c #5B444B",
"z  c #534A4D",
"x  c #5A494F",
"c  c #4F4F50",
"v  c #564F52",
"b  c #5C4D52",
"n  c #4F5050",
"m  c #535354",
"M  c #5E5155",
"N  c #575857",
"B  c #5D5658",
"V  c #575858",
"C  c #5C5C5C",
"Z  c #61474E",
"A  c #634D54",
"S  c #694F56",
"D  c #635157",
"F  c #64555A",
"G  c #6A545B",
"H  c #645A5D",
"J  c #6B595F",
"K  c #5F5F60",
"L  c #675B60",
"P  c #6C5D62",
"I  c #725D64",
"U  c #5F6060",
"Y  c #646364",
"T  c #6C6266",
"R  c #676768",
"E  c #6E6568",
"W  c #676868",
"Q  c #6B6B6B",
"!  c #716166",
"~  c #73656A",
"^  c #7A636A",
"/  c #746A6D",
"(  c #796A6F",
")  c #756D71",
"_  c #7B6D72",
"`  c #6F7070",
"'  c #737373",
"]  c #7D7275",
"[  c #777877",
"{  c #777778",
"}  c #7D7679",
"|  c #777878",
" . c #7B7B7B",
".. c #806E74",
"X. c #827176",
"o. c #83767A",
"O. c #8A757B",
"+. c #827B7E",
"@. c #8A7A7F",
"#. c #7F807F",
"$. c #857E81",
"%. c #8A7D81",
"&. c #907D83",
"*. c #7F8080",
"=. c #848383",
"-. c #8B8385",
";. c #8D8689",
":. c #878888",
">. c #8C8C8C",
",. c #928286",
"<. c #928589",
"1. c #938B8E",
"2. c #968E90",
"3. c #9A8D91",
"4. c #949393",
"5. c #9A9496",
"6. c #979897",
"7. c #9B9799",
"8. c #979898",
"9. c #9C9B9C",
"0. c #A3979A",
"q. c #A29B9E",
"w. c #A1A09F",
"e. c #A29FA0",
"r. c #9FA0A0",
"t. c #A1A1A1",
"y. c #A5A3A4",
"u. c #A6A6A6",
"i. c #A9A4A6",
"p. c #A7A8A7",
"a. c #A7A7A8",
"s. c #ABA7A9",
"d. c #A7A8A8",
"f. c #AAABAB",
"g. c #ACABAB",
"h. c #AEAEAE",
"j. c #B1A6A9",
"k. c #B1ACAD",
"l. c #AFB0AF",
"z. c #B3AFB1",
"x. c #AFB0B0",
"c. c #B1B1B1",
"v. c #B4B4B4",
"b. c #B8B6B7",
"n. c #BBB5B8",
"m. c #B7B8B8",
"M. c #B9BAB9",
"N. c #BCBCBC",
"B. c #C1BDBE",
"V. c #BFC0BF",
"C. c #C2BFC0",
"Z. c #BFC0C0",
"A. c #C3C4C4",
"S. c #C9C7C7",
"D. c #C7C8C7",
"F. c #C8C7C8",
"G. c #C7C8C8",
"H. c #C9CACA",
"J. c #CBCCCC",
"K. c #CDCECE",
"L. c #CFD0CF",
"P. c #CFD0D0",
"I. c #D1D2D2",
/* pixels */
"f.t.f.f.f.9.:.:.=.f. .- O X : - X X X . O . .       . . > 9 > . . . : > : X O X       .   .   . . 9 ",
"u.f.h.t.h.9.4.Y W h 7 h 7 5 . 7 h h h g 5 - : : > % > 5 h | h O O - : O O X - X O . .     .   . . d ",
"4.c.9.t.=.=. .9 7 : O - > O . $ > : > > > 9 h m m 9 m h V  .W 7 h d > u 9 7 > : > - O .       X X d ",
"u.t.=.B W W  .K 5 . X O > 9 m V =.:.4.9.t.9.f.Z.v.] -.9.4.N.>.f.N.M.8.:.:.h d d d h d 9 X . . .   h ",
"v.f.m d  . .9.4.8.4.4.4.4.m 4.h.N.I.P.K.I.Z.K.v.9.a A :. .h.4.h.Z.v.v.h.' W =.=. .9 d 9 - : 7 : O 9 ",
"v.c.m ' :.7.f.t.u.v.M.c.h.=. .H.I.I.I.I.I.I.I.z.G 5.i.P t.f.>.Y Q :.h.4.W h.M.9. . .h 8 O X : O X O ",
"v.#.9 =.t.;.f c.h.c.f.N.N.v.Y M.I.K.I.I.I.I.3.x k.k.I.<.~ N.N.H.v.J.I.C :.f.4.4. .z Y : . . 5 d O 7 ",
"9.9 : V 4.f.4 x f.9.N.N.N.Z.8.W I.I.I.I.q.D -.H.H.i.I.I.<.a ] i.g.s.;.v E / ! a @ < # X X - C 7 > 9 ",
"h > . n =.9.k E T b / <.1.<.} r ~ ~ b D %.A.I.I.P 5.I.I.I.C.0.X.I S 4 D ~ E o.+.4 2 - : : - h u - d ",
"> d Y 4.>.c.) 2.+.9.d ) >.i.4.$.h F.I.I.I.I.I.o.k p H.I.I.I.I.H.N.4.C M.f.M.u.9.k ' m C h m Y 5 > h ",
":  .t.f.M.M.4.~ >.t # C f.D.D.A.C Q  . . .{ F e W 4 j {  . . . . .n t.D.@.k.f.f -.c.9.>.>.:. .m : m ",
"5 =.4.v.M.x.B.p 9.z.j } 9.A.H.N.9.c.h.g.5.p b s.4.;.P k 9.h.h.h.h.d.9.O.* h.o.G 2.A.=.h.u.9.9.4.5 h ",
"s 4.c.M.m.x.H.F c.H.s.a e X.k.9.l.w.] p j $.y.u.E -.y.] p P -.-.%.O.a G 0 H 5.A 5.9.N.N.9.v.=. .: 7 ",
"d 9.N.v.M.A.K.] N.K.K.;.F 0.^ l l A ~ 4.f.f.f.=.1 } i.f.u.;.T J G ( ;.4.p -.K.P 0.9.A.K.v.H.r.:.> 5 ",
": >.h.M.N.D.H.@.N.L.L.N.0 <.4.h.f.f.f.f.f.f.9.0 b 0 9.f.f.f.f.f.f.u.2.x e ] H.o.X.G.D.l.M.A.4.=.: X ",
"- >.l.G.M.I.I.1.N.I.I.b.I G ] h.h.h.h.h.h.9.e 1.G -.p 1.h.h.h.h.7.l l ~ M I A.s.S M.x.I.m.K.c.d X X ",
". Y 4.H.v.I.I.@.K.I.I.k.<.) e 1.e _ 0.7.o.l 1.h.a 5.y.e T q.t.X.q * P c.=.e A.b.y F.K.h.v.h.9.9 : O ",
"O d ` D.D.I.I.o.I.I.I.O.E 4.2.y x %.I I o.h.v.0.1 9.v.c.$.J F P A & -.v.h.j <.N.L 3.I.N.K.M.:.h : > ",
"X 3 R M.I.I.I.3.I.I.I.I ' c.v.} w f.v.v.v.v.v.A = F h.v.v.v.v.T l -.x v.v.$.p v.z.l v.A.I.K.c.| h O ",
"O d 9 >.K.I.B.j.I.I.N.a 4.M.M.5.l a y.M.M.M.o.~ F ~ J v.M.M.) w g.M.A ;.M.p.j &.I./ ;.f.v.9.u.| 5 . ",
"X 5 Q 4.M.I.k.D.I.I.5.D v.N.N.,.%.X.* u.v._ J M.P s._ S ] j + 4.N.N.y.y 5.v.1.a b.A.0 q.I.v.D.g.> . ",
": > Y u.h.I.k.I.I.I.j 4.N.N.N.P i.N.^ * D %.N.N.F h.N.k.<.a x k.N.N.N.i.0 _ h.x 3.I.q.b A.N.H.9.X X ",
"- O Y c.N.N.K.I.I.t.k N.A.A.N.a A.A.h.0 ~ A.A.A.w v.A.v.p ] / 2.A.A.A.A.s.^ l J x D.H.-.l K.N.Q X O ",
"5 - V N.c.D.I.I.H.j ;.D.D.D.s.@.D.D.z.o.F +.D.4.+ b %.0 k h.y.k N.D.M.m.x.1.] h.b $.H.K.X.A h.h O - ",
"6 O 9  . .4.4.4.' e N.D.D.D.J v.D.D.e.] N.1 G D k 5.p 0 ,.D.D.%._ N.D.D.A.] g.D.q.e / :.1.p j C 5 9 ",
"> O 7 m  .W 4.f.! ) H.H.D.-.o.H.H.D.L i.D.F F ] x J ~ 1.J v.v.i.H t P / _ e D z b z 1 P 2.D Z R : h ",
"> > 5 # 2 h T e _ 4./ P k a %.! b p 4 / L a P @ * @ l Z 1 j S _ 0 E o.s.b.( A.A. .<.E 1.b o.4.C 5 d ",
": > m 5 z 4 w } +.=.z 4 4.5.2.<.X.e -.y.o.F y.@.@ -.D.5.y.K.K.( +.K.K.H.v./ A.>.:.G 7.M $.t.t.Q 9 7 ",
"5 d '  .u. .T ! 4.Y =.~ 1.L.L.L.K.A.1.L.L.q.$.l b F 5.y.K.L.F.l M.L.H.J.L.( A.C w H ! } f.u.4. .d 7 ",
"d m +.' h.W 9.k H 4.h.Q P I.I.I.I.I.q.A.I.2.1 C.( b.j J I.I.y.J I.I.I.I.I.] :.=.t R ~ u.f.f.9.' d 7 ",
"d Y =.' 4.W =.+.M c.c.9.z v.I.I.I.I.S.v.A.e ! 3.x 5.I.! 5.I.2.1.I.I.I.I.H.] / o.+.b f.h.f.y.f.{ h - ",
"c  .Y Q m  .m ' F 9.c.c.Q ] I.I.I.I.I.M.P <.I.K.G N.I.H.I <._ v.I.I.I.v.%.f 4.~ 9.T h.f.h.u.h.Q 9 - ",
"W Y =.=.d m - 7 2 } v.v.9.F P.I.I.I.I.] 2.I.I.I.^ C.I.I.K.~ F A.I.I.k.v.f.| :.7._ u.v.f.c.f.t.' s > ",
"Q Y Y C : O > > r < h.M.v.w u.I.I.I.$._ 7.s.g.y.D N.i.%.%.o.e +.I.I.;.I.W 9.+.b.! h.v.M.v.f.=.Y d > ",
"h  .m h . . .   - < f.M.N.t Y I.I.5.F b.I.I.I.I.F y.5.I.I.D.5.] <.5.H.4.=.;.v.s.+.f.c.c.h.h.Q m > > ",
"> h c 9 9 - X O   4 c.N.N.j  .4.n.! H.I.I.I.I.I.+.J I.I.I.I.I.I.o.! D.C c.1.N.0.1.M.N.u.f.9.=. .- O ",
"O Y V  .9 Y  .Q t.k c.A.A.k g.h ! K.I.I.I.H.I.I./ / I.I.I.I.I.I.N._ z >.A.$.A.5.4.N.v.M.M.4.4. .- O ",
"X R h h h  .9.u.' b f.v.N.t z 4 j <.q.J.I.K.I.I.] v.D.y.q.9.C.I.q.c.f / A.=.D.s.7.t.M.D.M.4.:.=.{ Q ",
". - h V =.W M.D.h.B Y [ } < & 9.h 9.4.%.1.a.f.f._ 4.=.f.f.f.>.+.4.C =.M F  .A.h.y.N.9.D.v.M. .=.'  .",
"X > { h 9.9.>.H.H./ i.H.s.e 7.D.=.4.4.4.4.=.=.4.T Y 4.4.4.>.4.>.4.=.7.9.v w f.s.f.A.G.M.c.f.4.=.=.t.",
"O z :.Y >.Z.=.d.H.] g.H.$.;.H.u.f.u.t.t.t.t.9.9./ -.y.t.t.t.;.:.+.5.:.A.} T b y.i.H.c.4.9.8.f.=.=.y.",
"- r W Q  .v.J.' A.] b.q.z N.H.4.h.u.u.u.u.u.u.9.H ;.u.u.u.=./ q.u.f.t.x.f.f.+.k f.N.x.8.' 4.{ =.v.m.",
"- ; h { >.4.V.D.=.M v.<.q.k.1.5.y.f.f.f.f.u.f.f.T 1.f.e./ 5.9.=.f.f.y.' 9.C / } ..M.D.v.>. .Q 4.h.c.",
"X O - =. .>.M.H.H.w A ! 1.5.] 3.<.3.5.y.h.t.h.h.) 4.q.;.h. .9.' 1.} 8 8 m h L >.H.9.c.N.9.Q =.t.K.K.",
"O ; O =.Q =.D.h.h./ N.K.D.>.t.h.h.h.h.h.5.y.h.h.:.$.9.h.h.4.E ;.Y { 3 O - 9  .f.*.A.5.9. .K =.h.d.v.",
"O o - >  .4.c.D.A.c.A.c.f.=.c.c.c.c.c.c.f.f.f.c.4.;.c.f.1.u.f.W  .h O . X 9 Y V 5 9 d 9 d ' 9.t.f.H.",
". # O : d =.4.8.h.x.A.H.{ t.t.t.h.v.c.f.u.f.s.v.i.y.e.$.f.4. .[ V 9 O X   9 > - - > 7 W m.9.A.u.9.h.",
"X O X > X d Q { 4.t.h.=.W 4.h.u.t.>.=.4.W 4.9.4.9.y.2.f.c.c.u.v.>.Q V d d 7 > W 4.h 4.9.>.r.f.v.M.' ",
". # . - : > > 9 d i m m C W '  .=.=.W U m Q V h Q } :.:.9.4.9.:.Q 9 9 d 5 - 9 :.9.6.A.c.v.c.v.G.Z.=.",
". # X X . X X - - : : 5 V m c m h h d 9 m V Y m m h d m m d 7 d d > h N Y ' >.C c.r.G.g.K.A.D.N.K.N."
};
