/* XPM */
static char *result[] = {
/* columns rows colors chars-per-pixel */
"50 50 252 2 ",
"   c #5A5B5B",
".  c #5C5D5D",
"X  c #5E605F",
"o  c #5F6060",
"O  c #606161",
"+  c #616262",
"@  c #636464",
"#  c #656565",
"$  c #676867",
"%  c #676868",
"&  c DimGray",
"*  c #6B6C6C",
"=  c #6B6D6C",
"-  c #6D6D6D",
";  c #6D6E6E",
":  c #6D6F6E",
">  c #6E6F6F",
",  c #6F706F",
"<  c gray44",
"1  c #707170",
"2  c #707271",
"3  c #717272",
"4  c #727373",
"5  c #737473",
"6  c #737474",
"7  c #747575",
"8  c gray46",
"9  c #757675",
"0  c #757676",
"q  c #757776",
"w  c #767776",
"e  c #777877",
"r  c #777878",
"t  c #7A7C7B",
"y  c #7B7C7B",
"u  c #7B7C7C",
"i  c #7C7C7C",
"p  c #7C7D7D",
"a  c #7D7E7E",
"s  c #7D7F7E",
"d  c #7E7F7F",
"f  c gray50",
"g  c #7F8180",
"h  c #808180",
"j  c #808181",
"k  c #808281",
"l  c #818282",
"z  c #818382",
"x  c #828382",
"c  c #838584",
"v  c #848585",
"b  c #858786",
"n  c #868686",
"m  c #868787",
"M  c #878887",
"N  c #878988",
"B  c #888A89",
"V  c #888B8A",
"C  c #898B8A",
"Z  c #8A8B8A",
"A  c #8A8B8B",
"S  c #8B8C8C",
"D  c #8B8D8C",
"F  c #8B8D8D",
"G  c gray55",
"H  c #8C8D8C",
"J  c #8D8E8D",
"K  c #8C8E8E",
"L  c #8D8E8E",
"P  c #8D8F8E",
"I  c #8F908F",
"U  c #8F9090",
"Y  c #8F9190",
"T  c #8F9291",
"R  c #909191",
"E  c #909291",
"W  c #909292",
"Q  c #919292",
"!  c #919392",
"~  c #929393",
"^  c #939393",
"/  c #919493",
"(  c #929493",
")  c #929494",
"_  c #939594",
"`  c #939595",
"'  c #939695",
"]  c gray58",
"[  c #949695",
"{  c #959696",
"}  c #959797",
"|  c #969796",
" . c #969797",
".. c #979897",
"X. c #979998",
"o. c #989A99",
"O. c #999A99",
"+. c #989A9A",
"@. c #999A9A",
"#. c #999B9B",
"$. c #9A9A9A",
"%. c #9A9B9A",
"&. c #9A9B9B",
"*. c #9A9C9B",
"=. c #9A9C9C",
"-. c #9B9C9C",
";. c #9B9E9D",
":. c #9C9D9C",
">. c #9E9D9C",
",. c #9F9E9C",
"<. c #9F9E9D",
"1. c #9F9F9D",
"2. c #9C9E9E",
"3. c #9D9F9E",
"4. c gray62",
"5. c #9F9F9E",
"6. c #9E9F9F",
"7. c #9EA09F",
"8. c #A1A09E",
"9. c #A1A19F",
"0. c #9FA0A0",
"q. c #9EA1A0",
"w. c #9FA1A0",
"e. c #A0A0A0",
"r. c #A0A1A0",
"t. c #A1A1A0",
"y. c #A0A1A1",
"u. c gray63",
"i. c #A2A1A1",
"p. c #A2A2A1",
"a. c #A1A2A2",
"s. c #A1A3A2",
"d. c #A1A3A3",
"f. c #A2A2A2",
"g. c #A3A2A2",
"h. c #A3A3A2",
"j. c #A2A3A3",
"k. c gray64",
"l. c #A2A4A3",
"z. c #A3A4A3",
"x. c #A1A4A4",
"c. c #A2A4A4",
"v. c #A3A5A4",
"b. c #A4A4A4",
"n. c #A5A4A4",
"m. c #A5A5A4",
"M. c #A5A5A5",
"N. c #A5A6A4",
"B. c #A5A6A5",
"V. c #A6A7A5",
"C. c #A4A6A6",
"Z. c #A5A6A6",
"A. c #A5A7A6",
"S. c gray65",
"D. c #A7A7A6",
"F. c #A6A7A7",
"G. c #A7A7A7",
"H. c #A7A8A8",
"J. c #A7A9A8",
"K. c #A7A9A9",
"L. c #A7AAA9",
"P. c gray66",
"I. c #A8A9A8",
"U. c #A9A9A8",
"Y. c #A8A9A9",
"T. c #A9A9A9",
"R. c #A9AAA9",
"E. c #AAAAA9",
"W. c #A9AAAA",
"Q. c #A8ABAA",
"!. c #A9ABAA",
"~. c #A9ABAB",
"^. c #AAAAAA",
"/. c #AAABAA",
"(. c gray67",
"). c #A9ACAB",
"_. c #AAACAB",
"`. c #ABACAB",
"'. c #ABACAC",
"]. c #ABADAD",
"[. c #ACACAC",
"{. c #ACADAD",
"}. c gray68",
"|. c #ADAEAD",
" X c #ADAEAE",
".X c #ADAFAE",
"XX c #AEAEAE",
"oX c #AEAFAE",
"OX c #AEAFAF",
"+X c #AFAFAF",
"@X c #ADB0AF",
"#X c #AEB0AF",
"$X c #AFB0AF",
"%X c #AFB0B0",
"&X c #AFB1B0",
"*X c #AFB2B1",
"=X c #B0B1B0",
"-X c #B0B1B1",
";X c #B0B2B1",
":X c #B1B2B2",
">X c #B1B3B2",
",X c #B2B3B2",
"<X c #B2B3B3",
"1X c #B2B4B3",
"2X c #B3B4B3",
"3X c #B3B4B4",
"4X c #B3B5B4",
"5X c #B4B5B4",
"6X c #B4B6B5",
"7X c #B5B6B5",
"8X c #B5B6B6",
"9X c #B4B7B6",
"0X c #B5B7B7",
"qX c #B6B7B7",
"wX c #B5B8B7",
"eX c #B6B8B7",
"rX c #B7B8B7",
"tX c #B7B8B8",
"yX c #B7B9B8",
"uX c #B6B9B9",
"iX c #B7B9B9",
"pX c #B7BABA",
"aX c #B8B9B8",
"sX c #B8B9B9",
"dX c #B8BAB9",
"fX c #B8BABA",
"gX c #B8BBBA",
"hX c #B9BBBA",
"jX c #B9BCBB",
"kX c #BBBCBB",
"lX c #B9BCBC",
"zX c #BABCBC",
"xX c #BBBCBC",
"cX c #BABDBC",
"vX c #BBBDBC",
"bX c #BBBDBD",
"nX c #BBBEBD",
"mX c #BCBEBD",
"MX c #BCBEBE",
"NX c #BCBFBE",
"BX c #BCBFBF",
"VX c #BDBFBF",
"CX c #BDC0BF",
"ZX c #BEC0C0",
"AX c #BEC1C0",
"SX c #BEC1C1",
"DX c #BFC2C1",
"FX c #BFC2C2",
"GX c #C0C2C1",
"HX c #C0C2C2",
"JX c #C0C3C2",
"KX c #C0C3C3",
/* pixels */
"k.k.k.k.k.k.k.k.k.k.y.V CXAXAXAXAXAXAXAXAXAXAXAXAXAXAXAXAXAXAXAXAXAXAXAXAXAX).I M.z.k.k.k.k.k.k.k.k.",
"S.S.S.S.S.S.S.S.S.S.G.b L.DXDXDXDXDXDXDXDXDXDXDXDXDXDXDXDXDXDXDXDXDXDXDXDXmXM j.S.S.S.S.S.S.S.S.S.S.",
"P.P.P.P.P.P.P.P.P.P.P.y.d GXKXKXKXKXKXKXKXKXKXKXKXKXKXKXKXKXKXKXKXKXKXKXKXw.C G.P.P.P.P.P.P.P.P.P.P.",
"^.^.^.^.^.^.^.^.^.^.^.T.v 2.KXKXKXKXKXKXKXKXKXKXKXKXKXKXKXKXKXKXKXKXKXKXVX7 M.^.^.^.^.^.^.^.^.^.^.^.",
"[.[.[.[.[.[.[.[.[.[.[.[.v.> gXKXKXKXKXKXKXKXKXKXKXKXKXKXKXKXKXKXKXKXJXKXS U '.[.[.[.[.[.[.[.[.[.[.[.",
"XXXXXXXXXXXXXXXXXXXXXXXX XS z KXKXKXKXKXKXKXKXKXKXKXKXKXKXKXKXKXKXKXKX].e /..XXXXXXXXXXXXXXXXXXXXXXX",
"%X%X%X%X%X%X%X%X%X%X%X%X%XW.= *XKXKXKXKXKXKXKXKXKXKXKXKXKXKXKXKXKXKXHX0 X.%X%X%X%X%X%X%X%X%X%X%X%X%X",
":X:X:X:X:X:X:X:X:X:X:X:X:X>X[ 4 DXKXKXKXKXKXKXKXKXKXKXKXKXKXKXKXKXKXC.9  X>X:X:X:X:X:X:X:X:X:X:X:X:X",
"2X2X2X2X2X2X2X2X2X2X2X2X2X2X%X# x.KXKXKXKXKXKXKXKXKXKXKXKXKXKXKXKXNX: 6.4X3X2X2X2X2X2X2X2X2X2X2X2X2X",
"6X6X6X6X6X6X6X6X6X6X6X6X6X7X8X~ O JXKXKXKXKXKXKXKXKXKXKXKXKXKXKXKX} & 6X6X6X6X6X6X6X6X6X6X6X6X6X6X6X",
"yXyXyXyXyXyXyXyXyXyXyXyXyXyXtX2X% 6 u u u u u u u u u u u u u u u . 6.aXyXyXyXyXyXyXyXyXyXyXyXyXyXyX",
"hXhXhXhXhXhXhXhXhXhXhXhXhXhXhX<XX.I.N.m.m.m.m.m.m.m.m.m.m.m.m.m.m.a.0.hXhXhXhXhXhXhXhXhXhXhXhXhXhXhX",
"lXlXlXlXlXlXlXlXlXlXlXlXlXlXzXX.D.5.1.<.<.<.<.<.<.<.<.<.<.<.<.<.<.S.Q eXlXlXlXlXlXlXlXlXlXlXlXlXlXlX",
"MXMXMXMXMXMXMXMXMXMXMXMXMXMX1X| M.u.p.i.i.i.i.i.i.i.i.i.i.i.i.i.i.u.z.O.MXMXMXMXMXMXMXMXMXMXMXMXMXMX",
"CXCXCXCXCXCXCXCXCXCXCXCXCXCX/ B.k.k.k.k.k.k.k.k.k.k.k.k.k.k.k.k.k.k.F.L 9XAXCXCXCXCXCXCXCXCXCXCXCXCX",
"DXDXDXDXDXDXDXDXDXDXDXDXDXA.Y Z.M.M.M.M.M.M.M.M.M.M.M.M.M.M.M.M.M.M.M.a.A DXDXDXDXDXDXDXDXDXDXDXDXDX",
"JXJXJXJXJXJXJXJXJXJXJXJXSXj S.G.G.G.G.G.G.G.G.G.G.G.G.G.G.G.G.G.G.G.G.G.A ).KXJXJXJXJXJXJXJXJXJXJXJX",
"KXKXKXKXKXKXKXKXKXKXKXKX_ ] ^.T.T.T.T.T.T.T.T.T.T.T.T.T.T.T.T.T.T.T.T.T.M.h nXKXKXKXKXKXKXKXKXKXKXKX",
"KXKXKXKXKXKXKXKXKXKXKXeXi P.(.(.(.(.(.(.(.(.(.(.(.(.(.(.(.(.(.(.(.(.(.(.(.Z  .KXKXKXKXKXKXKXKXKXKXKX",
"KXKXKXKXKXKXKXKXKXKXKXm ^ |.}.}.}.}.}.}.}.}.}.}.}.}.}.}.}.}.}.}.}.}.}.}.|.J.2 gXKXKXKXKXKXKXKXKXKXKX",
"KXKXKXKXKXKXKXKXKXKXQ.6 _.$X#X#X#X#X#X#X#X#X#X#X#X#X#X#X#X#X#X#X#X#X#X#X#X&XR j JXKXKXKXKXKXKXKXKXKX",
"KXKXKXKXKXKXKXKXKXDX5 X.-X-X-X-X-X-X-X-X-X-X-X-X-X-X-X-X-X-X-X-X-X-X-X-X-X-X`., @XJXKXKXKXKXKXKXKXKX",
"KXKXKXKXKXKXKXKXKX;.3 =X1X<X<X<X<X<X<X<X<X<X<X<X<X<X<X<X<X<X<X<X<X<X<X<X<X<X<X%.< CXKXKXKXKXKXKXKXKX",
"KXKXKXKXKXKXKXKXvX@ l.8X8X6X6X6X6X6X6X6X6X6X6X6X6X6X6X6X6X6X6X6X6X6X6X6X6X6X6X5X- #.KXKXKXKXKXKXKXKX",
"` ` ` ` ` ` ` ' e t qXrXrXrXrXrXrXrXrXrXrXrXrXrXrXrXrXrXrXrXrXrXrXrXrXrXrXrXrXtXv.+ [ ` ` ` ` ` ` ` ",
"j.j.j.j.j.j.j.j.0.P hXhXhXhXhXhXhXhXhXhXhXhXhXhXhXhXhXhXhXhXhXhXhXhXhXhXhXhXhXhX!.@.z.l.j.j.j.j.j.j.",
",.,.,.,.,.,.,.<.g...I.xXvXxXxXxXxXxXxXxXxXxXxXxXxXxXxXxXxXxXxXxXxXxXxXxXxXxXxXkXY U.<.<.,.,.,.,.,.,.",
"u.u.u.u.u.u.u.t.9.R.N pXMXMXMXMXMXMXMXMXMXMXMXMXMXMXMXMXMXMXMXMXMXMXMXMXMXMXMX3.:.p.u.u.u.u.u.u.u.u.",
"k.k.k.k.k.k.k.k.h.n.{ *.CXCXCXCXCXCXCXCXCXCXCXCXCXCXCXCXCXCXCXCXCXCXCXCXCXAXwXN H.h.k.k.k.k.k.k.k.k.",
"b.b.b.b.b.b.b.b.b.M.S.a fXAXSXAXAXAXAXAXAXAXAXAXAXAXAXAXAXAXAXAXAXAXAXAXAXDX( &.M.b.b.b.b.b.b.b.b.b.",
"G.G.G.G.G.G.G.G.G.G.G.X.F JXJXJXJXJXJXJXJXJXJXJXJXJXJXJXJXJXJXJXJXJXJXJXJX@Xc G.G.G.G.G.G.G.G.G.G.G.",
"T.T.T.T.T.T.T.T.T.T.T.H.y >XKXKXKXKXKXKXKXKXKXKXKXKXKXKXKXKXKXKXKXKXKXKXDXz 4.T.T.T.T.T.T.T.T.T.T.T.",
"(.(.(.(.(.(.(.(.(.(.(.(.$.y SXKXKXKXKXKXKXKXKXKXKXKXKXKXKXKXKXKXKXKXKXKXc.f ^.(.(.(.(.(.(.(.(.(.(.(.",
"}.}.}.}.}.}.}.}.}.}.}.}.[.8 s.KXKXKXKXKXKXKXKXKXKXKXKXKXKXKXKXKXKXKXKXAX9 k.}.}.}.}.}.}.}.}.}.}.}.}.",
"+X+X+X+X+X+X+X+X+X+X+X+X+X7.1 FXKXKXKXKXKXKXKXKXKXKXKXKXKXKXKXKXKXKXKX! v oX+X+X+X+X+X+X+X+X+X+X+X+X",
"-X-X-X-X-X-X-X-X-X-X-X-X-X-Xl E KXKXKXKXKXKXKXKXKXKXKXKXKXKXKXKXKXKXiX* I.-X-X-X-X-X-X-X-X-X-X-X-X-X",
",X,X,X,X,X,X,X,X,X,X,X,X,X<XH.X uXKXKXKXKXKXKXKXKXKXKXKXKXKXKXKXKXJXz K <X1X,X,X,X,X,X,X,X,X,X,X,X,X",
"6X6X6X6X6X6X6X6X6X6X6X6X6X6X4Xk q KXKXKXKXKXKXKXKXKXKXKXKXKXKXKXKX!.o ;X6X6X6X6X6X6X6X6X6X6X6X6X6X6X",
"eXeXeXeXeXeXeXeXeXeXeXeXeXeXeXR.  o.d.d.d.d.d.d.d.d.d.d.d.d.d.d.d.$ J eXeXeXeXeXeXeXeXeXeXeXeXeXeXeX",
"sXsXsXsXsXsXsXsXsXsXsXsXsXsXsXqXB P H G G G G G G G G G G G G G G B Y.dXsXsXsXsXsXsXsXsXsXsXsXsXsXsX",
"jXjXjXjXjXjXjXjXjXjXjXjXjXjXjXs.v.5.<.>.>.>.>.>.>.>.>.>.>.>.>.>.>.E.W gXjXjXjXjXjXjXjXjXjXjXjXjXjXjX",
"bXbXbXbXbXbXbXbXbXbXbXbXbXnXjX) V.8.8.8.8.8.8.8.8.8.8.8.8.8.8.8.8.i.-.K.bXbXbXbXbXbXbXbXbXbXbXbXbXbX",
"NXNXNXNXNXNXNXNXNXNXNXNXNXNXq.e.h.p.p.p.p.p.p.p.p.p.p.p.p.p.p.p.p.f.M.D nXNXNXNXNXNXNXNXNXNXNXNXNXNX",
"ZXZXZXZXZXZXZXZXZXZXZXZXAX0XB S.b.b.b.b.b.b.b.b.b.b.b.b.b.b.b.b.b.b.M.o.2.AXZXZXZXZXZXZXZXZXZXZXZXZX",
"DXDXDXDXDXDXDXDXDXDXDXDXJXT -.S.S.S.S.S.S.S.S.S.S.S.S.S.S.S.S.S.S.S.S.G.x cXJXDXDXDXDXDXDXDXDXDXDXDX",
"JXJXJXJXJXJXJXJXJXJXJXJX~.M P.T.P.P.P.P.P.P.P.P.P.P.P.P.P.P.P.P.P.P.P.P.-.D JXJXJXJXJXJXJXJXJXJXJXJX",
"KXKXKXKXKXKXKXKXKXKXKXCXs j.^.^.^.^.^.^.^.^.^.^.^.^.^.^.^.^.^.^.^.^.^.^.W.p ].KXKXKXKXKXKXKXKXKXKXKX",
"KXKXKXKXKXKXKXKXKXKXKX=.n {.}.[.[.[.[.[.[.[.[.[.[.[.[.[.[.[.[.[.[.[.[.[.}.r.r AXKXKXKXKXKXKXKXKXKXKX",
"KXKXKXKXKXKXKXKXKXKXuXw z.+XOXOXOXOXOXOXOXOXOXOXOXOXOXOXOXOXOXOXOXOXOXOXOXOXg +.KXKXKXKXKXKXKXKXKXKX",
"KXKXKXKXKXKXKXKXKXKXS N -X=X=X=X=X=X=X=X=X=X=X=X=X=X=X=X=X=X=X=X=X=X=X=X=X-Xv.; BXKXKXKXKXKXKXKXKXKX"
};
