/* XPM */
static char *_889b360246742b985f3fa006bc90e337ki4KVVEx5rPE0SE[] = {
/* columns rows colors chars-per-pixel */
"50 50 51 1 ",
"  c #232B37",
". c #262E3B",
"X c #27303D",
"o c #29313E",
"O c #2C3543",
"+ c #2E3846",
"@ c #2D3748",
"# c #2F3A49",
"$ c #303947",
"% c #323C4C",
"& c #343F50",
"* c #33404F",
"= c #35404F",
"- c #364253",
"; c #364254",
": c #374456",
"> c #394455",
", c #3B4857",
"< c #394659",
"1 c #3A485A",
"2 c #3D4A5A",
"3 c #3B485C",
"4 c #3C4A5E",
"5 c #3E4C5F",
"6 c #3F4D61",
"7 c #414D5C",
"8 c #414F63",
"9 c #435162",
"0 c #445163",
"q c #435064",
"w c #445367",
"e c #455467",
"r c #445368",
"t c #465569",
"y c #485769",
"u c #49576C",
"i c #4A586C",
"p c #4E5C6F",
"a c #4F5F73",
"s c #4E5E74",
"d c #505E71",
"f c #526173",
"g c #556273",
"h c #53647A",
"j c #56657A",
"k c #57677C",
"l c #5B697A",
"z c #59697C",
"x c #5C6D82",
"c c #627388",
"v c #63758B",
/* pixels */
"+++OOOOX++++OOO.O+++OOOOX+++OoOO.++++oOO.O+++OOOOo",
"+++O+++OO++oO++O.++OO+++.O++OO++Oo++oO+++.++OO+++o",
"%+O%++++OOOO++++ooX ++++O.X.X++++.XX.++++ooOO#+++O",
"+++-++++%++O%++O#++O.+++o+++.+++O+++oO+++O+++;+++-",
"+++#6%%%++++1<18%+++.XoO++++O.X..++++....$+++1q883",
"+++%%++#+++O4++>2+++O+++4+++#+++.+++OO++OO+++6++Ou",
"2++-+++OO++;#+++i++%*+++47++8+++OO+O.++++.++%>+++>",
"r;%%++++oOO-++++>:;4>+++>a88l++++-OO.++++.O+-%+++@",
"+++OO++O+++O%++OO+++6+++i+++f>++5%++Oo++OO+++++++O",
"++++.Ooo++++OOO.++++%>>w9++++v09a++++oOO.++++OoOXO",
"+++OO++.O++OO++OX+++++++s+++82++p%++OO++Oo+++O+++.",
"OOOO+++O.OOX++++.ooX++++20--i++++w%+O++++.oo.++++O",
"+OO.+++OoOO.++++oOOOO+++%2%%w++++<$Oo++++oOOOO+++o",
"+++.O++o$++Oo++OO+++.+++%+++++++%%++Oo++OO+++.+++X",
"+++O....++++....O+++o.oOO+++O.OO+++++o.. O+++X...O",
"+++.+++oO++O+++O.+++o+++.+++.+++OO++O+++O.++Oo+++.",
".oXo++++.oo.++++.oo ++++O.oXo++++.oo.++++.oo ++++O",
"$++.+++OO++.O+++o++OX+++o%++.+++OO++XO+++o++Oo+++O",
"+++O.OOO++++.OOoO+++.OOOO+++O.OOOO+++.OOoO+++.OOOO",
"+++O.OO.++++oOO.O+++oOOoo+++OXOO.++++oOO.O+++oOOo.",
"O++o+++OO++oO+++.++OO+++.+++o+++OO++oO+++.++OO+++.",
"oOoo++++.OO.++++.OO.$+++OoOoo++++.OO.++++.OO.++++O",
"+++.+++O+++XO+++o++Oo+++.+++.+++O+++oO+++o++Oo+++.",
"+++O ooo++++..X.++++..o.O+++O...o++++.oX.++++....O",
"+++O+++.+++OO++OO+++.+++.+++O$++.+++OO++OO+++.+++.",
"O++o+++Oo++o$+++.++OO+++.O++o+++Oo++o$+++.++OO+++.",
"oo.X++++.oo.++++oo..O+++OooXo++++.oo.++++oXo O+++O",
"+++XO++O+++Oo++OO+++.+++O+++XO++o+++OX++OO+++.+++O",
"++++ ..o++++.oo.++++o.X.O++++ ..o++++....++++o...O",
"+++oO++.O++OO++OO+++o++O.+++oO++.O++OO++Oo+++O++O.",
"OOOo+++O.OO.++++.OOo++++oOOOo+++O.OO.++++.OOO++++o",
"OOO.++++XOO.++++XOOXO+++OOOO.++++.OO.++++.OOXO+++O",
"+++.O++o+++Oo++OO+++.+++o+++XO++o+++OX++OO+++.+++O",
"+++O.XX.++++.Xo.++++oXX.o+++O.XX.++++.XX ++++XoX.O",
"+++X$++XO++O+++OX+++X+++.+++o$++XO++OO++Oo+++X+++o",
" ..o++++.XXo++++....++++O...o++++...o++++....++++O",
"+++X+++OO++O++++O++Oo+++O+++.+++OO++XO+++O++Oo+++O",
"+++Oo++O++++%$%OO+++o++OO+++Oo++O++++.++oO+++.O+OO",
"+++O.X.X++++63<<#+++OOo.o+++O....++++o...O+++ooX.O",
"+++X+++O%++->+++w+++-+++.+++.+++oO++OO++Oo+++O+++.",
"oOOO++++;-;u++++w>:q%+++OoOoo++++.OO.++++oOOO%+++O",
"+++#+++%>++q-+++1++%4+++o+++.+++OO++.O+++O++O%+++O",
"+++%3&-e++++8+OO%+++#OOOo+++O.OOo++++.oOO++++1-%%-",
"+++-4--k++++>+OO++++o+OOX+++O+OO.++++oOOO%+++6-%%w",
"=++y+++-g++3%+++X++OO+++.O++o+++Oo++o++++<++%w+++w",
"hqrj++++jits++++o.. O+++O...X++++...X++++47qx>+++%",
"+++g%++82++,9++OO+++.+++O+++.O++oO++Oo++O>+++z+++4",
"++++cdfz++++jt8<++++oX..O+++O ..o++++..O;++++8t-O%",
"+++%>++j++++q++%%+++o+++.+++o+++.+++OO++%>+++q++OX",
"O++%+++%y++1%+++%++OO+++.O++.+++Oo++X++++t++-5+++."
};
