/* XPM */
static char *result[] = {
/* columns rows colors chars-per-pixel */
"50 50 71 1 ",
"  c #0E1517",
". c #0F1518",
"X c #101719",
"o c #131A1C",
"O c #171E21",
"+ c #181F22",
"@ c #1B2224",
"# c #1E2528",
"$ c #21272A",
"% c #242B2D",
"& c #262D30",
"* c #2B3234",
"= c #313739",
"- c #343A3D",
"; c #393E3F",
": c #393F41",
"> c #3D4244",
", c #414648",
"< c #454B4C",
"1 c #494E51",
"2 c #4C5153",
"3 c #505557",
"4 c #515658",
"5 c #555A5C",
"6 c #585D5E",
"7 c #5A5F60",
"8 c #5E6263",
"9 c #616465",
"0 c #626768",
"q c #666A6B",
"w c #6B6D6D",
"e c #6F706F",
"r c #6B6F70",
"t c #6C7172",
"y c #737474",
"u c #777877",
"i c #767979",
"p c #7B7C7D",
"a c #7C7F80",
"s c #7E8182",
"d c #828484",
"f c #878887",
"g c #838789",
"h c #868A8A",
"j c #8B8C8C",
"k c #8F908F",
"l c #8B8E90",
"z c #8E9191",
"x c #939595",
"c c #979897",
"v c #939798",
"b c #969999",
"n c #9D9D9C",
"m c #A1A09E",
"M c #9B9FA0",
"N c #9EA1A1",
"B c #A4A4A4",
"V c #A6A8A7",
"C c #A7A9A9",
"Z c #ABACAB",
"A c #AEB0AF",
"S c #ACAFB0",
"D c #AFB0B0",
"F c #B2B3B3",
"G c #B6B8B7",
"H c #B7B9B8",
"J c #BABCBC",
"K c #BDC0BF",
"L c #BCBFC0",
"P c #BFC1C1",
"I c #C0C3C3",
/* pixels */
"BBBBmBBmBBmfKPPPPPGPLLILLLILIPPJPPPPPPCzBBBBBBmBBB",
"BBBCCBCBBBZdZPPPPPDPIIIIILLIIPIZPPPPPPgBBCBBBBBBZB",
"CCZCVVCCBZBmpPPIIFZPIIIIIIIIIIIxPPPPPNjCCCCCCZCCBZ",
"ZCZCZZZZZZZZfnIIIcJIIIIIIIIIIIIpPIPPPiCCCZZZCZZZZZ",
"ZZZZZZZZZZZZBeHIIsIIIIIIIIIIIIIbMPPPjkZZZZZZZZZZZZ",
"DDDZZDZDZDDDZjdPItIIIIIIIIIIIIIHaPPDuZAAADDZZDZDDZ",
"DDZFDDFDDDDDDZwDNdIIIIIIIIIIIIIIqLIycDZDDDDDDDDDDD",
"FDFFFDFFFDFFDFcy5ZIIIIIIIIIIIIIItNBuZFFFFDFFFFFDDF",
"FFFFFFFFFFFFFFD7-IIIIIIIIIIIIIIIx8tnFFFFFFFFFFFFFF",
"FGFGGFGFGGFGGGG8&IIIIIIIIIIIIIIIn%9GFGGFGFGGFGFGGF",
"HHGHGGHGHHGHGGG,+wppppppappppppp2+pHHHHGGHHHJHHHHG",
"HHJJJJJHJHJHJJG3@mBBBBBBBBBCBBBBw@sJJJJJJHJHJHJJHJ",
"JJJJJJJJJJJJJJJ9@mmnnnmnnmmmmmmmy%fGJJJJJHJJJJJJJJ",
"KKKKJJKKKJKJJKFp#BBmmBBmmmmmmmmmy,BcJJJPKKPJLJJLKK",
"KKKKKKKKKPKPKPxB*cBmBBBBBBBBBBBB0wBjHPPJPPPJLLLLKK",
"PPPPPPPIPPPPPBkB0aBBBBBBBBBBBBBB1cBBjPPPPPPPLIIIPP",
"IIPPIIIIPIIIPaBCn4ZBBBZBZBBBZBZm1BZZjCIIIIIPIIIIPP",
"IPPPIIIIIIIIxxZZZ2BZZZZBZZZZBZZwaCZBBsJIIIIIIIIIII",
"IIIJFIIIIIIGpZZZZ8&cZZZZZZZZZBq&cZZZZjcIIIIILMLIII",
"IIPPxFIIIIPfxZZAZtO0DZZZZZZZZZ:*mDZZZCeJIIIIlSIIII",
"IIIIIglIIPZyCDDZDD7*BDDZDDZDDg&xDDDDDDksIIH0BIIIII",
"IIIIILt1APycFDFDDDZ>gDxgDDtDD:aDDDDFDDZeZx&xIIIIII",
"IIIIIIId=;6DFFFFFFFB,F3jFF2Bs8DFFFFFFFZ7$1SIIIIIII",
"IIIIIIIIm$+2xFGFFGFGg0029y=B2DGGFFGGFt=#:cIIIIIIII",
"vvxxxxxxuubp77:$:rCFH+q&O.4$7GGl7$+74qdBB9xxxxxxcx",
"BBBBBNBBmkJHJJl67717,7&&OO*+8,23549ZLHJHZcBBBBBBBB",
"MnnnnnnnBcCJJJJJHLLaO+*+++o:.=DLLHLLJHJJkZnnnnnnnm",
"mBmBmmBmmZfHLLZ01<7:<=&+++oo,:<112aLLLJmnmBmBmmBmm",
"BmBBBBBBBBxnLJ1O,hC9<%%OOOXO&1gnt*OzLLGfBBBBBBBmmB",
"BBBBBBBBBBBab:aCLLL4O.OOOO.XO*gLLFz19FxcBBBBBmBBBB",
"CBCCCBBCCCM7+aIIIL7:OOOO.O...X:NIILL:=wZBBBZBZZBZB",
"CZCZCCZCCx=+>DIIIvr>OOO.O.O...r:GIIIZ$+9ZZBZZBZBZZ",
"ZZZZZZZZZeO,kpPII1g&++OXXoXX .*raLLIB7@$ZZZZZZZZZZ",
"ZZZZZZDZc%wBZyBIg4y+++XOOXOXOOOZ:ZILyBf<<CDZZZZDDD",
"DZFDDDDZ,kDDDmeZoleO++OXOXXXO.OL<7IvdDDZ9eZDDDDDDD",
"FFDFDDDjkDDDDDaw:Ggo++OXXXOX..$Il2HwZDDDDuZDDDDDDD",
"FFFFFFDmFFFFFFZ,cIH%+OooXOO...7LLqslFFDFFDZFFDFFDD",
"GFGFGFGGFGFFFGF6yII9o+Oo.O....BII77DGFGGGFGFGFGGGF",
"GGGGGGGGHGHHGHG72cmx%OOoXO...2NNB1aHGGGHHGHHHHGGGG",
"HHHHHHHHHHHHHHH4ukkfd@+oO...:ljjl<hHHHHHHHHHHHHHJH",
"JJJJJJJJJJJJJJJ2pmmmnd+ooX.;xnnmm:eHJJJJJJJJJJJJJJ",
"JJJJJJJJJJJJJJJ,2mmmmmd#X.,cmmmmx$uZJJJJJJJJJJJJLJ",
"LJJKLJJLPJPPLLm2@kmBmmmk39mBmmBm8@fjJPKJKJKJPJPJJJ",
"PPPPPPPPPPPJLFjd$kBBBBBBBBBBBBBB7,mnnPPPPPPPPPPPIJ",
"PPPPPPPPPPPLPknB2fBBBBBBBBZBBCBB1jBBdGPPPIPPPPPPII",
"IIIIIIIIIIIIZfCZp7BZZZZBZBBZBCZB:mZZnjIIIIIIPPIIII",
"IIIIIIIIIIILpmZZZ,ZZZZZZZZZZZCZd8ZZBZpZIIIIIIIIIII",
"IIIIIIIIIIInjZZZZpkZZZZZZZZZZZZ6BZZZZBuPIIIIIIIIII",
"IIIIIIIIIIGuBDDZFZdZFZFZZDDDDZmxDDDDDDpnIIIIIIIIII",
"IIIIIIIIIIkfDFDDDFZZDDFFDDDDDDBFDDDDDDBeJIIIIIIIII"
};
