/* XPM */
static char *result[] = {
/* columns rows colors chars-per-pixel */
"50 50 74 1 ",
"  c #0E1517",
". c #0F1518",
"X c #10171A",
"o c #131A1D",
"O c #171E21",
"+ c #181F22",
"@ c #1B2224",
"# c #1E2629",
"$ c #202628",
"% c #242A2D",
"& c #272D30",
"* c #282F32",
"= c #2C3235",
"- c #2F3638",
"; c #303537",
": c #31373A",
"> c #343A3C",
", c #3A3E40",
"< c #3D4244",
"1 c #414546",
"2 c #424648",
"3 c #454A4C",
"4 c #494C4E",
"5 c #494E50",
"6 c #4D5253",
"7 c #505556",
"8 c #525658",
"9 c #555A5C",
"0 c #5A5D5E",
"q c #5E605F",
"w c #5B5F60",
"e c #5E6263",
"r c #616466",
"t c #676867",
"y c #626768",
"u c #65696B",
"i c #6B6D6D",
"p c #6F706F",
"a c #6B6F70",
"s c #6D7172",
"d c #737474",
"f c #777877",
"g c #727779",
"h c #747979",
"j c #7A7C7D",
"k c #7C7F80",
"l c #7E8182",
"z c #828484",
"x c #878887",
"c c #868989",
"v c #8B8C8C",
"b c #8F908F",
"n c #8D8F90",
"m c #8E9191",
"M c #939594",
"N c #969897",
"B c #969999",
"V c #9D9D9C",
"C c #A1A09E",
"Z c #9D9FA0",
"A c #9EA1A1",
"S c #A4A4A4",
"D c #A4A7A8",
"F c #A7A9A9",
"G c #ABABAB",
"H c #ABAFB0",
"J c #AFB0B0",
"K c #B2B3B3",
"L c #B6B8B7",
"P c #B7B9B8",
"I c #BABCBC",
"U c #BDC0BF",
"Y c #BFC1C1",
"T c #C0C3C3",
/* pixels */
"SSSSSCSSSSCvIUYUYUYYUUYUYYYYYYYYYUYYYYGbSSSSSSCSSS",
"SSFSSFSSSSSxFTUTTYYYTTYTYYYYYYYYYTYYYIxSSFSSSSSSGS",
"FFFSGSGFSGGCkYTTTTTTTTTTTTTTTTTTTTTTTCvSGSGSSGGSSG",
"GFGGGFGGGGGGxVTTTTTTTTTTTTTTTTTPTTTTUdSGGGGGGGGGGG",
"GGGGGGGGGGGGSpITTTTTTTTTTTTTTTMHTTTTvbGGGGGGGGGGGG",
"KGJGGJGJJGJGGvlTTTTTTTTTTTTTTcKTTTTGfGGJGGJGJJJJJG",
"KGJJJJKJJJJJJGaJTTTTTTTTTTTYanTTTTTfVGJJKGKGJJJJJJ",
"KKKKJKJKKKJKKAppTTTTTTTTTTTl5TTTTTSfGKKJKKKKKKJKKJ",
"KKKKKKKKKKKKKKb;BYTTTTTTTTD:HTTTTUiVKKKKKKKKKJKKKK",
"KKKLKLLKLLKLKLLz%kGTTTTTTY-,YTTTTBtPPPLKPKLKLLLKKL",
"LLILLLLLLLLPPPLK6O;fjjjjka+wjjkjj0VPPPPPPPPPILLLPP",
"ILIIILIIIIIIPIIKb<+rSSSSDa5SSSSSSSZPPIPIPIPIPIIIPI",
"IIIIIIIIPIIIIIINSN7@xVVVC8zVCCCVZSMLIIIIIIIIIIIIII",
"IYUIUIUIIUUIIIKNSSCi>VSCS8CCCCCSZZSVIIUUUIUUIUIUII",
"YYUUYYUUYUUUYUMSSSSSi2MSj,SSSSSSSSDvLUYUUUUUUUUUYY",
"YYYYYYMr870qpjdMSSSSbo9S7+SSSDSSSSSMkk83sHTUUTTTTY",
"YYYYn9&+wmFHFt:OdSGSS,4F7,SGSSSGGVt*@@@+=,9VTTTTTY",
"YYn5uZDHTTTTMMZk43zGDk1F6ySGGGaq40kVSzKKTTGzakBKTT",
"YmZYTTTTTTTLjChrukr8GB8D4ZGGG9O&GGGGGvMTTTTTTTIGJI",
"UYTTTTTTTTTl1%OOO%1:58,k8GGZ<*uNGJGGGGpPTTTTTTTTTT",
"YYYYTTTTTTM$OOO+++O.O22+1Jc1zGGJJJJGJJbkTTTTTTTTTT",
"YYTYTTTTTZ+OOO+O++OOO%=+8+rGJJJJJJJKJJGpGTTTTTTTTT",
"TTTTTTTTZ+OOOooOOOOOO%%=%yy8NJKKKKKKKKKVpITTTTTTTT",
"TTTTTTTD%oOOooXoOXOO.O+#&&6vxJLLKLKLKLLLaVTTTTTTTT",
"ZBMMMMM5XXoooooXoo.oo+O+OOrLLLLLPPPPPPPPSqMMMMMMMM",
"AAASSSSe.XoXooooooooo++OO.gIIIILIIPPIPIPGVSSSSSSSS",
"ZZCCVCVV1.XXoXoo.ooo.ooo=8=7gIIIIIIIIIIInGVVVVVVVV",
"DZAASACCV,..XXXX....oo ,$$HHIIUIIITIIITVVCSCSCCSCS",
"SSSSSSSCAB,X...oo....*, ywwcUIYUUUUIIYLvDSSCSSSSSS",
"SSSSSSSSDDF5....Oo..,6,,3UPy,BYYUUUTTYMVSSSSSSSSSS",
"NBSFSSSSDDDBs9&X.&y,cc5K7TTYc&,dITTTTGzSGSSGSSGSSG",
"GnwzSGGGFDHDkHYIHk<ZYA6T8mTTTD=%kITTTzCGSGSGCxpkVS",
"GGSq,4qtVGGGVjv4,kKTTk5T9wTTTTKDn99kk8ayvxeepvFGGG",
"GGJGGb2@%<799<<9HTTTH%9Tw%TTTTTTTTHk:%++&9vGGGGGJG",
"JJJJJJGbxzxnZVpTTTTTmOkTy@TTTTTTTTUnxVxjVGJJJJJJJG",
"JJJJJJKJJJKJJJznTTTK5mTTHwTTTTTTTTPaGGKJJKKJKKJJJJ",
"KKJKKKJKKKKKKJFqPTG,tTTTTwPUTTTTTTznKKJKKKKKKKKKKK",
"KLLLLKLLKKPKLLKldM,;KTTTIkkTTTTTTDeJKKLKKLKLKKKLPK",
"LLLPLLLPPPPPPPPG7@+jSSCCZk,ZZZAZZynLPPPPPLPPLPPLPP",
"PPPPLPPPPPPPPPPK,%0vvvvvnko2nnnnnvFPPIPPPPPPPPPPPP",
"IIIIIIIIIIIIIIIr4CCCVVCVVV7&NCCCVGbPIIIIPIIIIIIIII",
"IIIIIIIIIIIIIIjrSCCCCCCCCCV1fCCCCCVGIIIIIIIIIIIIII",
"YIIIIYIUUIUIIPBCSCCCCCCSCCCM&VCCCSSvIYIYYIIIIIYIIU",
"YYYYYYYYYYYYUPvSSSSSSSSSSSSSj8SSSSSVVYYYYYTYTYYTYY",
"TYTYYTYYYYTTTnVSSSSSGSSSGSSSSbfSSSSSzPYYYYYYTYYYYY",
"TTTTYTTTTTTTGxSGGSGGSSGGSGGGGSNvGGGGVbTTTYTTTTTTTT",
"TTTTTTTTTTTIlSGGGGGGGGGSGGGGGGGGSGGGGjGTTTTTTTTTTT",
"TTTTTTTTTTTVxGGGGGGGGGGGGGGGGGGGGGGGGCjYTTTTTTTTTT",
"TTTTTTTTTTPfSJJJJGJJGJJGJJJJGJGJJGJJGGzNTTTTTTTTTT",
"TTTTTTTTTTvxJJJJJJJKJKKJJJJJJJKJJJJKKKSpUYTTTTTTTT"
};
