/* XPM */
static char *_7f803854082430ec167953334375acdt5eXgTP1t0EEB3ET[] = {
/* columns rows colors chars-per-pixel */
"50 50 57 1 ",
"  c #2C2C2C",
". c #343434",
"X c #3B3B3B",
"o c #434343",
"O c #474848",
"+ c #4C4C4C",
"@ c #4F5050",
"# c #545454",
"$ c #5C5C5C",
"% c #5F6060",
"& c #636464",
"* c #676868",
"= c #6B6C6C",
"- c #6F7070",
"; c #737474",
": c #777877",
"> c #777878",
", c #7B7C7C",
"< c #7F8180",
"1 c #838483",
"2 c #878887",
"3 c #878988",
"4 c #8B8C8C",
"5 c #908F8E",
"6 c #8F908F",
"7 c #8F9190",
"8 c #939594",
"9 c #979897",
"0 c #979998",
"q c #9D9D9C",
"w c #9EA09F",
"e c #A1A09E",
"r c #9FA1A0",
"t c #A3A4A3",
"y c #A3A5A4",
"u c #A4A4A4",
"i c gray65",
"p c #A6A8A7",
"a c #A7AAA9",
"s c gray66",
"d c #AAACAB",
"f c #A9ACAC",
"g c #ACACAC",
"h c #AEB0AF",
"j c #AFB0B0",
"k c #B1B2B2",
"l c #B3B4B3",
"z c #B1B4B4",
"x c #B4B6B5",
"c c #B5B8B7",
"v c #B7B9B8",
"b c #B9BBBA",
"n c #B9BCBC",
"m c #BCBEBE",
"M c #BDC0BF",
"N c #BFC2C1",
"B c #C0C3C3",
/* pixels */
"ttttttttttt3MNNNNNNNNNNNNNNNNNNNNNNNNNd6ittttttttt",
"iiiiiiiiiii2aNNNNNnNNNNNNNNNNNnBNNNNNm2tiiiiiiiiii",
"ssssssssssst,BBBBBgBBBBBBBBBBBNkBBBBBr3issssssssss",
"ssssssssssss2qBBBBrBBBBBBBBBBBB0BBBBm;isssssssssss",
"ggggggggggggy=bBBztBBBBBBBBBBBB0BBBB47fggggggggggg",
"ggggggggggggg41BB9zBBBBBBBBBBBB3NBBf:sgggggggggggg",
"jjjjjjjjjjjjjs=jB;NBBBBBBBBBBBBfqBB;0jjjjjjjjjjjjj",
"kkkkkkkkkkkkkk9;y=BBBBBBBBBBBBBN=Bi;gkkkkkkkkkkkkk",
"llllllllllllllj&$qBBBBBBBBBBBBBB&x=qzzllllllllllll",
"xxxxxxxxxxxxxxx4XcBBBBBBBBBBBBBB;$=xxxxxxxxxxxxxxx",
"vvvvvvvvvvvvvvv8X&,,,,,,,,,,,,,,#Oqbvvvvvvvvvvvvvv",
"bbbbbbbbbbbbbbb9o>iiiiiiiiiiiiii##rbbbbbbbbbbbbbbb",
"nnnnnnnnnnnnnnn8o1qqqqqqqqqqqqqq$=8cnnnnnnnnnnnnnn",
"mmmmmmmmmmmmmml9#1tttttttttttttt$1tqmmmmmmmmmmmmmm",
"MMMMMMMMMMMMMM8i;>tttttttttttttt#qi4xNMMMMMMMMMMMM",
"NNNNNNNNNNNNNi7i8&iiiiiiiiiiiiit&iit3NNNNNNNNNNNNN",
"BBBBBBBBBBBBN1iii=tiiiisssiiiss23iis4fBBBBBBBBBBBB",
"BBBBNBBBBBBB89sss41ssssssssssss=ssssi1nBBBBBBBBBBB",
"BBBBvbBBBBBc,ssssqX,ssssgsssss=&ssssg39BBBBBjNBBBB",
"BBBBBrzBBBB28ggggi##sggggggggq#2gggggs;bBBB4nBBBBB",
"BBBBBBqqNBs;dhhhhhto8hhshgshh>;ghhhhhj81Bk*zBBBBBB",
"BBBBBBN>#y;0kkkkkkk2&kq9kk=ki+akkkkkkkd=1#fBBNBBBB",
"BBBBBBBBr++8lkkkkkkk;q>8kk$i;qkkkkkkkg,+#jBBBBBBBB",
"BBBBBBBBn&=#$2y4qkxxg$3+##$1;xxxp4q0;#$1=qBBBBBBBB",
"88888888:,xxdq>..o=qa++O..- <s4$X.+9rgcvy&98888888",
"ttttttttr4bbbbbiqqq; #o+oXX#XX6qqqjbbbbbsqtttttttt",
"qqqqqqqqt9snnnnxsiiq*X#+oo..+;iypknnnnnb7sqqqqqqqq",
"ttttttttes3vmmgOX#;+ o&ooo..X =*XX1mmmmqqttttttttt",
"ttttttttti9qMa==qmNt=oOXXX..+;nMv,&2vNc3attttttttt",
"iiiiiiiiiii,1#iNNNl@ XoX...  .=NNNN=#y8qiiiiiiiiii",
"iiiiiiiiiiq#o9BBBN,4ooo....  .,9BBBM=o&iiiiiiiiiii",
"ssssssssss=o#kBBBi3=#oX....  .,#NBBBzOo8ssssssssss",
"sssssssss9o;9,NBb#a+ooX.... .X#,1BBBy;$$isssssssss",
"ggggggggs#9gg;tB=#jXooX.....X @gXjBN;ts;;ggggggggg",
"kkgggggg1tkkgw;N#9zXoo......  $B$8B82ggg1qggkkkggg",
"kkkkkkkkskkkkk181BN#ooX....   3Bv3v=skkkkakkkkkkkk",
"lkkkkkkkkkkkkka$1BB9XoX....  XnBN;14klkkkkkkllkkkk",
"xxxxxxxxxxxxxxz,;BBN&Xo...   8BBB#%kxxxxxxxxxxxxxx",
"ccccccccccccccc8Oqtt9oXX..  $ttttO4ccccccccccccccc",
"bbbbbbbbbbbbbbb9$44444+..  &44441#sbbbbbbbbbbbbbbb",
"bbbbbbbbbbbbbbb8+9qqqq8O  =qqqqq;$8bbbbbbbbbbbbbbb",
"nnnnnnnnnnnnnnb1o=eeeeeq,5eeeeeeO&qannnnnnnnnnnnnn",
"mmmmmmmmmmmmmmrt&;tttttttttttttt#4i4nmmmmmmmmmmmmm",
"NNNNNNNNNNNNNx3i3$iiiiiiiiiiiiiq#iiqqNNNNNNNNNNNNN",
"NNNNNNNNNNNNB7qii#tiiiiiiiiiiii,;iii1nBNNNNNNNNNNN",
"BBBBBBBBBBBBs2sss22ssssssssssss&tsssq4BBBBBBBBBBBB",
"BBBBBBBBBBBM,tssss1sssssssssssq3sssss,fBBBBBBBBBBB",
"BBBBBBBBBBBq2gggggtqggggggggggqggggggt>NBBBBBBBBBB",
"BBBBBBBBBBv;tgggggggggggggghgggggggggg<qBBBBBBBBBB",
"BBBBBBBBBB43kkkkkkkkkkkkkkkkkkkkkkkkkky=mBBBBBBBBB"
};
