/* XPM */
static char *_0373b82998b400281ba6eadd4427932cEqmIau04hcRTj0N[] = {
/* columns rows colors chars-per-pixel */
"50 50 68 1 ",
"  c #242323",
". c #292627",
"X c #2F2C2D",
"o c #302E2F",
"O c #353233",
"+ c #383637",
"@ c #3E3A3C",
"# c #403E3F",
"$ c #494748",
"% c #4D4C4C",
"& c #504F4F",
"* c #545252",
"= c #585657",
"- c #5D5C5C",
"; c #605E5F",
": c #625F60",
"> c #656364",
", c #686566",
"< c #6C6A6B",
"1 c #716E6F",
"2 c #737272",
"3 c #787677",
"4 c #7E7D7D",
"5 c #817F80",
"6 c #858484",
"7 c #888787",
"8 c #8D8C8C",
"9 c #908E8F",
"0 c #949393",
"q c #989797",
"w c #9C9C9C",
"e c #A19FA0",
"r c #A4A4A4",
"t c #A9A7A7",
"y c #ABABAB",
"u c #B0AEAF",
"i c #B4B3B3",
"p c #BCBCBC",
"a c #C0BEBF",
"s c #C4C3C4",
"d c #C8C7C7",
"f c #CCCBCB",
"g c #D0CECF",
"h c #D2CFD0",
"j c #D3D3D3",
"k c #D8D6D7",
"l c #D9D7D8",
"z c gray85",
"x c gray87",
"c c #E0DEDF",
"v c #E1E1E1",
"b c gray89",
"n c #E5E3E3",
"m c #E6E6E6",
"M c #E8E7E7",
"N c #E9E9E9",
"B c #ECEBEB",
"V c #EBEBEC",
"C c #ECEBEC",
"Z c #EFEFEF",
"A c #F0EFEF",
"S c gray94",
"D c #F4F3F4",
"F c gray97",
"G c #F8F6F7",
"H c #F9F9F9",
"J c #FCFBFC",
"K c white",
/* pixels */
"KKKKKKKKKKKKKKKKKKKKKKKKKKKKKKKKKKKKKKKKKKKKKKKKKK",
"KKKKKKKKKvjZKKKKKKKKKKKKKKKKKKKKKKKKKKKKKKKKKKKKKK",
"KKKKKKKKKiffKKKKKKKKKKKKKKKKKKKKKKKKKKKKKKKKKKKKKK",
"KKKKKKKKKZjsHKKKKKKKKKKKKKKKKKKKKKKKKsyZKKKKKKKKKK",
"KKKKKKKKKKKKfHKKKKKKKKKKKKKKKKKKKKKKKpmpKKKKKKKKKK",
"KKKKKKKKKKKKSfFKKKKKKKKKKKKKKKKKKKKKztsZKKKKKKKKKK",
"KKKKKKKKKKKKKmNKKKKffKKKKKKKKKKKKKKjtHKKSKKKKKKKKK",
"KKKKKKKKKKKKKFsKKKjsiNKKKKKKKKKZKKjyHKKFpmKKKKKKKK",
"KKKKKKKKfmKKKKZsKKxyqFKKKKKKKKxpFZtHKKKsjHKKKKssFK",
"KKKKKKKKfsFKHNKHsHKpvKKKKKKKKKKiKjzKKKpSKKKKKKrsNK",
"KKKKmypKKNfKsfSKSfKsmKKKKKKKKKKpKzzKKsZKKKKKKfmZKK",
"KKKKsNiKKKZpvizKKfKpzKKKKKKKKKvfKpNKsZsfKKKKfmKKKK",
"KKKKHptfKKKSsKvfKfmSqmKHpqjKKvfKisHsmZisKKjsxKKKKK",
"KKKKKKKpfKKKZfHvzKjvJ6i74s-pwpKifKpZFyKKKpZKKKKKKK",
"KKKKKKKKpxKKKmfKxxKjjkX7FKN;@ZyfKpZSySKKjZKKKKKKKK",
"KKKKKKKKKiiiiHZpKzzF<=<FsqjN>%qJsmStZKKfvKKKKKKKKK",
"KKKKKKKKKKKKZrSZsKz<,6KysFrfZ:72mStHNfjNKKKKKKKKKK",
"KKKKKKKKKfZFFFtZBik&8HisZqNyfF=2jqKmfKKKHyjKKKKKKK",
"KKKKKKKKKifxsSZwGwX4SpijrNeFwxM>ofNfHfqq4mySKKKKKK",
"KKKKKKKKKFKKHfmC>12SpyjpfrxyFtlM,56KfyZZfpiKKKKKKK",
"KKKKKKKKKKKKKKyt<4Kpsizipjym0FrjA-wwyKKKKSKKKKKKKK",
"KKKKKKKKKKKKKKco7KippZwxysftZqVyjF%$FKKKKKKKKKKKKK",
"KKKKKKKKKKKKKKr2FpyfN7NqvysptmrSqzm,fKKKKKKKKKKKKK",
"KKKKKKKKKKKKKz,FfijjrvyxrxipfwjySrFm-FKKKKKKKKKKKK",
"KKKKKKKKKKKKKf7KtNiifwmwSqjtphinuiZH-ZKKKKKKKKKKKK",
"KKKKKKKKKKKKKF,sF0Npsfqx0SwmtsapzqKr7KKKKKKKKKKKKK",
"KKKKKKKKKKKKKKx#sZyxyfsivwvyzyxswG0%ZKKKKKKKKKKKKK",
"KKKKKKKKKKKKKKp%-fDwZiifrNwZ0mfyFw>&jKKKKKKKKKKKKK",
"KKKKKKKKKKKKKmsF-+sC0SisfwvqZgqKt.wZqZKKFtjKKKKKKK",
"KKKKKKKKKjFKNsKsyiOsS0Ziffymf9Ft+kqSHqii8FyFKKKKKK",
"KKKKKKKKKpfjzJpfKq0-dStmysjpyFq;4iKjmFmmfiiKKKKKKK",
"KKKKKKKKKHKKKpsKfNm*$hSwZpftFr%:HjvKsvNKKFHKKKKKKK",
"KKKKKKKKKmssisKsNFrx7OsNqtwJy szpKjzKxzfKKKKKKKKKK",
"KKKKKKKKNrZSFKfxHyZZ0y@gKKKt$rqSmjKjxKKNfKKKKKKKKK",
"KKKKKKKNtKKKKsZHyHNfKi>,sKe,-jSrFZjKzzKKSsKKKKKKKK",
"KKKKKFxwHKKKsmFiZZfFsiJv3>8HFsNNwFxfKxpxKNsfKKKKKK",
"KKKKxiqFKKKsmFtNKfKvyKKKKHKKKHsSmrKNsHpiKKKSsKKKKK",
"KKKKfjyKKKfvfimKKfKsvKKKKKKKKKHpKfxKmfvSKKKKSsKKKK",
"KKKKKzSKSsNKmfHKpNKsvKKKKKKKKKKpKjxKKNjHKKKKKFtiHK",
"KKKKKKKKsfKKKKKjZKHtyKKKKKKKKKNiHxjKKKxfKKKKKKtfmK",
"KKKKKKKKZHKKKKjxKKffsvKKKKKKKKmsHHtvKKKmiFKKKKNmKK",
"KKKKKKKKKKKKKNjKKKSyrKKKKKKKKKKKKKKtzKKFjFKKKKKKKK",
"KKKKKKKKKKKKKfSKKKKKKKKKKKKKKKKKKKKKyjxKKKKKKKKKKK",
"KKKKKKKKKKKKzzKKKKKKKKKKKKKKKKKKKKKKKqijKKKKKKKKKK",
"KKKKKKKKKKHxjKKKKKKKKKKKKKKKKKKKKKKKKisfKKKKKKKKKK",
"KKKKKKKKKjpfKKKKKKKKKKKKKKKKKKKKKKKKKSNKKKKKKKKKKK",
"KKKKKKKKKpszKKKKKKKKKKKKKKKKKKKKKKKKKKKKKKKKKKKKKK",
"KKKKKKKKKKNKKKKKKKKKKKKKKKKKKKKKKKKKKKKKKKKKKKKKKK",
"KKKKKKKKKKKKKKKKKKKKKKKKKKKKKKKKKKKKKKKKKKKKKKKKKK",
"KKKKKKKKKKKKKKKKKKKKKKKKKKKKKKKKKKKKKKKKKKKKKKKKKK"
};
