/* XPM */
static char *_1b1775361174948daa93d557b478e442OBvlDg4KLrBbAtm[] = {
/* columns rows colors chars-per-pixel */
"50 50 66 1 ",
"  c #676968",
". c #686A69",
"X c #6E6F6F",
"o c #717272",
"O c #767776",
"+ c #7A7B7B",
"@ c #7B7C7B",
"# c #7D7E7E",
"$ c #7F8180",
"% c #818382",
"& c #828484",
"* c #858786",
"= c #878988",
"- c #888989",
"; c #8B8C8B",
": c #8C8E8E",
"> c #8F908F",
", c #8E9190",
"< c #909091",
"1 c #939493",
"2 c #939594",
"3 c #969796",
"4 c #979897",
"5 c #979998",
"6 c #9A9B9B",
"7 c #9A9C9B",
"8 c #9B9C9C",
"9 c #9D9D9D",
"0 c #9FA09F",
"q c #9FA2A2",
"w c #A0A1A1",
"e c #A3A5A5",
"r c #A4A6A6",
"t c #A6A8A7",
"y c #A7A9A8",
"u c #A9AAA9",
"i c #ABADAC",
"p c #ACAEAD",
"a c #AEB0AF",
"s c #AEB0B0",
"d c #B0B2B1",
"f c #B3B4B3",
"g c #B1B4B4",
"h c #B4B7B6",
"j c #B7B8B7",
"k c #BAB9B7",
"l c #B7BBBA",
"z c #BBBBB9",
"x c #BBBBBB",
"c c #BCBBBB",
"v c #BBBCBB",
"b c #BCBCBB",
"n c #BABDBC",
"m c #BCBCBC",
"M c gray75",
"N c #BFC0BF",
"B c #C0BFC0",
"V c #BFC0C0",
"C c #BFC3C3",
"Z c #C0C0C0",
"A c #C1C4C3",
"S c #C3C4C4",
"D c #C3C5C4",
"F c #C4C7C6",
"G c #C4C8C7",
"H c #C4C8C8",
/* pixels */
"mmmmmmmmmmj8GGFFFFFFFFFFFFFFFFFFFFFFFFlymmmmmmmmmm",
"mmmmmmmmmmm9hGFFFFFFFFFFFFFFFFFFFFFFFD7zmmmmmmmmmm",
"mmmmmmmmmmmh<GHHHHHHHHHHHHHHHHHHHHHHHiqmmmmmmmmmmm",
"mmmmmmmZmmmm6yHHHHHHHHHHHHHHHHHHHHHHD*mmmmmmVVNmmZ",
"VVNmmZZZNNNZv#VHHHHHHHHHHHHHHHHHHHGH5uVmmmZZZVmmmm",
"ZZZZZZZZZZZZVe>HHHHHHHHHHHHHHHHHHHHg;mVZZZZZZZZZZZ",
"ZZZZZZZZZZZZZm@lHHHHHHHHHHHHHHHHHHG$pZZZZZZZZZZZZZ",
"ZZZZZZZZZZZZZZi@GHHHHHHHHHHHHHHHHHp-VZZZZZZZZZZZZZ",
"AZZZZZZZZZAAZZVOiHHHHHHHHHHHHHHHHD+gZZAAZAAAZZZZZA",
"ZZZZZZZZZZAAZZZu.GGHHHHHHHHHHHHHHq+ZZZAZZAAAZZZZAA",
"DDAAADAADDDDAADV+&---------------XdDAAAAAADDAAAAAD",
"ADAAAAAAADDDAAAZdmzzzzzzzzzzzzzzzhhDAAAAAAAAAAAAFF",
"DDDDDDDDDDDDDDDavzzzzzzzzzzzzzzzzmuZDDDDDDDDDDDDDD",
"DDDDDDDDDDDDDDVpmzzzzzzzzzzzzzzzzzzpDDDDDDDDDDDDDD",
"GDDDDDDDDDDDDDtmvzzzzzzzzzzzzzzzzmmrVFDDDDDDDDDDDD",
"GFFFFFFFFFFFFhymmmmmmmmmmmmmmmmmmmmzqFFFFFFFFFFFFF",
"GGGGGGGGGGGGF4mmmmmmmmmmmmmmmmmmmmmmwlGGGGGGGGGGHH",
"HHHHHHHHHHHHepNmmmmmmmmmmmmmmmmmmmmmn3AHHHHHHHHHHH",
"HHHHHHHHHHHV>mVVmmmmmNNNZZZZZZmNVNVVmweHHHHHHHHHHH",
"HHHHHHHHHHH2uZVVZNNNNNNNZZZZZZZZVVVVNm%AHHHHHHHHHH",
"HHHHHHHHHGg*NZVVZZVVVVVVVVVVZZZVVVVVVZt:GHHHHHHHHH",
"HHHHHHHHHF%aZZZZZZZZZZZZZZZZZZZZZZZZZZm%jGHHHHHHHH",
"HHHHHHHHHu%ZZZZZZZZZZZZZZZZZZZZZZZZZZZZs+DHHHHHHHH",
"HHHHHHHHDXzZZZZZAAZZAAAAZAAAAZZZZZZZZZZZ#rHHHHHHHH",
"qqqqqqqw%>ZZZZZDZDDDZZZZAAZZZZZZZZZZZZZFjXqwqqqqqq",
"ddddddddpyDAAAADAAAFAAAAADAAAAAAAAAAAADFvpdddddddd",
"kkkkkkkzbpzFFDDDDDDDDDDDDDDDFFDDDDDDDFFFumzzkkzzkk",
"zzzzzzzzzmwDDFFFFFFFFFFFFFFFFFFFFFFFFFFdfbzzzzcczz",
"mmzzzzzzcmuiFDDDDDDDDDDDDDDDFFFDDDDDGGZ0mbzzzmmmzz",
"mmmmmmmmmmm<ZFFFFFFFFFFFFFFFFFFFFFFFGGedmmmmmmmmmm",
"mmmmmmmmmmmp7GGGGGGGGGGGGGGGGGGGGGGGHz6mmmmmmmmmmm",
"mmmmmmmmmmmm>nHHHHHHHHHHHHHHHHHHHHHHF1hmmmmmmmmmmm",
"ZmmmmmmmmmZZd=DHHHHHHHHHHHHHHHHHHHHHd3VNmmmmVmmmmm",
"ZZZZZZZZZZZZm*pHHHHHHHHHHHHHHHHHHHHD*mZZZZZZZZZZZZ",
"ZZZZZZZZZZZZZz#DHHHHHHHHHHHHHHHHHHG89ZZZZZZZZZZZZZ",
"ZZZZZZZZZZZZZZ36HHHHHHHHHHHHHHHHHGV#mZZZZZZZZZZZZZ",
"ZZZZZZZZZZZZZZz.VHHHHHHHHHHHHHHHHG:eZZZZZZZZZZZZZZ",
"AAZZZZAAZZZZZZZ4%GHHHHHHHHHHHHHHHdXZZZZZZZZAZAZZZZ",
"DZZZZDDDZZDDDZAn rsssssssssssssssowAZZZZZZADAAZZZZ",
"AAAAFFDFAADDDDAZq99999999999999999nDAAAAAAFFFAAAAA",
"DDDDDDDDDDDDDDDglzzzzzzzzzzzzzzzzmiADDDDDDDDDDDDDD",
"DDDDDDDDDDDDDDDimczzzzzzzzzzzcczzcflDDDDDDDDDDDDDD",
"DDDDDDDDDDDDDDdjmbzzzzzzzzzzzzvzzcmeDDDDDFFDDDDDDD",
"FFFFFFFFGGGGFVwmmmmmmmmmmmmmmmmmmmmspFFFGGGGFFFFFF",
"FFFFFFFFFFGGFegmmmmmmmmmmmmmmmmmmmmm3DFFFFFFFFFFFF",
"GGGGGGGGGGHGh0mmmmmmmmmmmmmmmmmmmmmmh9GGGGGGGGGGGG",
"HHHHHHHHHHHD,vmmBmZNZZBmmmmmNmmmmmmmm<hHHHHHHHHHHH",
"HHHHHHHHHHHr9NZZZZZZZZZZZZZZZZZZZZZZZz&FHHHHHHHHHH",
"HHHHHHHHHHV-zZZZZZZZZZZZZZZZZZZZZZZZZZ3rHHHHHHHHHH",
"HHHHHHHHHG39ZZZZZZZZZZZZZZZZZZZZZZZZZZl#DHHHHHHHHH"
};
