/* XPM */
static char *_3cbc8272025419aca34af6c566ad8aeSTDAGWVt2sTFrnHo[] = {
/* columns rows colors chars-per-pixel */
"50 50 112 2 ",
"   c #593F28",
".  c #5C422A",
"X  c #5B4B2B",
"o  c #5B552C",
"O  c #5D5B2D",
"+  c #5D4836",
"@  c #61452D",
"#  c #65482F",
"$  c #60562D",
"%  c #674930",
"&  c #6B4C32",
"*  c #704F35",
"=  c #665430",
"-  c #6A5234",
";  c #645F34",
":  c #725136",
">  c #765438",
",  c #79563A",
"<  c #7D5A3D",
"1  c #5B652C",
"2  c #5B722D",
"3  c #5F6130",
"4  c #616232",
"5  c #686137",
"6  c #626B33",
"7  c #6B6339",
"8  c #766E3C",
"9  c #627C35",
"0  c #6B763B",
"q  c #667F39",
"w  c #645446",
"e  c #64594E",
"r  c #715743",
"t  c #755A45",
"y  c #7D5D42",
"u  c #735F4E",
"i  c #655B53",
"p  c #6A6441",
"a  c #65624C",
"s  c #7D624D",
"d  c #707440",
"f  c #67605A",
"g  c #7D6450",
"h  c #6C6C6C",
"j  c #805C3E",
"k  c #845F41",
"l  c #856041",
"z  c #8B6544",
"x  c #8F6846",
"c  c #84654C",
"v  c #8E6A4C",
"b  c #916947",
"n  c #956D4A",
"m  c #996F4B",
"M  c #9E734F",
"N  c #85705E",
"B  c #9E7451",
"V  c #92755B",
"C  c #A27651",
"Z  c #A57853",
"A  c #AA7C55",
"S  c #AE7F58",
"D  c #817266",
"F  c #8A7766",
"G  c #827469",
"H  c #847C75",
"J  c #4F9125",
"K  c #56982C",
"L  c #599B2F",
"P  c #5E8B32",
"I  c #5B9D31",
"U  c #68853B",
"Y  c #678B3A",
"T  c #69963C",
"R  c #5EA034",
"E  c #60A236",
"W  c #64A63A",
"Q  c #69A73E",
"!  c #67A93D",
"~  c #68AA3E",
"^  c #6F8140",
"/  c #6BAD41",
"(  c #71A145",
")  c #71AF46",
"_  c #6EB044",
"`  c #70B246",
"'  c #74B54A",
"]  c #7AB44E",
"[  c #76B84C",
"{  c #7FB150",
"}  c #7DBF53",
"|  c #7EC054",
" . c #AF8058",
".. c #B7865D",
"X. c #81B352",
"o. c #82B854",
"O. c #8CB05D",
"+. c #87B958",
"@. c #86BC58",
"#. c #88BA59",
"$. c #8BBD5C",
"%. c #8DBF5E",
"&. c #8A8178",
"*. c #81C057",
"=. c #82C158",
"-. c #8CC15E",
";. c #8FC261",
":. c #91C362",
">. c #94C665",
",. c #96C867",
"<. c #9ACC6B",
"1. c gray53",
/* pixels */
"' ' ' ' ' ' ' ' ' ~ W W W W W ~ _ _ / R R E / / / } } } [ ' ' / ~ ~ ! ! ! ! ~ ~ W E E I J J K / / / ",
"' ' ' ' ' ' ' ' ' ~ W W W W W ~ _ _ / R R E / / / } } } [ ' ' / ~ ~ ! ! ! ! ~ ~ W E E I J J K / / / ",
"' ' ' ' ' ' ' ' ' ~ W W W W W ~ _ _ / R R E / / / } } } [ ' ' / ~ ~ ! ! ! ! ~ ~ W E E I J J K / / / ",
"' ' ' / / / o.+.+.X.] ] { { { ^ . . 1 ! ! W W W E E E E -.;.;.%.%.%.] ` ` ! E E W / / ~ W W ! / / / ",
"' ' ' / / / o.#.#.X.{ { X.X.X.^     O ! ! W E E E R R R -.:.:.;.-.-.] ' ' ! E E W / / ~ ! ! ! / / / ",
"' ' ' / / / o.#.#.X.{ { X.X.X.^     O ! ! W E E E R R R -.:.:.;.-.-.] ' ' ! E E W / / ~ ! ! ! / / / ",
"@.@.@.; o o O.,.,.) Q Q / / / q     3 _ _ T o o O _ _ _ *.=.=.-.;.;.;.;.;.^ o o 2 I I I E E P o o o ",
"$.$.$..     O.<.<.) W W ! ~ ~ 9     4 _ _ T     X ' ' ' } | | -.:.:.>.>.>.d     1 K K L R R P       ",
"$.$.$..     O.<.<.) W W ! ~ ~ 9     4 _ _ T     X ' ' ' } | | -.:.:.>.>.>.d     1 K K L R R P       ",
"; ; ; i f f p 7 7 O O O Y _ _ q     X O O o     X W W W 4 4 4 ( ' ' 0 5 5 - : : = o o o o o $ : : : ",
"      h h h +           U ` ` q                 X R R R .     T / / O     & , , &           @ , , , ",
"      h h h +           U ` ` q                 X R R R .     T / / O     & , , &           @ , , , ",
"< < < u u u y < < z b b 8 6 6 7 < < , & & & & & - 1 1 1 .     3 6 6 a i i r , , < < < :     @ , , , ",
"n n n , , , x n n S ....<     : n n z , , , , , >                   f h h u , , l n n l     @ , , , ",
"n n n , , , x n n S ....<     : n n z , , , , , >                   f h h u , , l n n l     @ , , , ",
"z z z & & & z n n C A A j % % < n n z & & & & & &       # % % % % % w e e r , , j z z < % % : n n n ",
", , , .     z n n n n n k , , l n n l                   , , , , , , @     & , , , , , , , , z ......",
", , , .     z n n n n n k , , l n n l                   , , , , , , @     & , , , , , , , , z ......",
"z z z .     j z z z z z c g g c z z j @ @ % > > > > > > , , , l z z < > > , , , < j j < , , l S S S ",
"......@     : , , , , , G 1.1.D , , , , , z ............< , , A ..........b , , l n n z , , j n n n ",
"......@     : , , , , , G 1.1.D , , , , , z ............< , , A ..........b , , l n n z , , j n n n ",
"......# @ @ j z z z z z F &.&.N j j < , , k A A A  . . .> : : C  . . . . .z , , k z z z j j l n n n ",
"......< , , A ..........C n n n n n z , , , , , < n n n .     z n n n n n k , , , , , j n n n n n n ",
"......< , , A ..........C n n n n n z , , , , , < n n n .     z n n n n n k , , , , , j n n n n n n ",
"......< , , Z ..........M b b n n n z , , , , , , b b b @ @ @ z n n b b b j , , , , , < x x b b b b ",
"n n n , , , , , , z n n k , , l n n z , , :     . , , , n n n n n n j , , , , , , , , *     @ , , , ",
"n n n , , , , , , z n n k , , l n n z , , :     . , , , n n n n n n j , , , , , , , , *     @ , , , ",
"n n n , , , , , , z n n k , , l n n z , , :     . , , , n n n n n n j , , , , , , , , *     @ , , , ",
"n n n n n n # . . : , , , , , & . . . . . @ , , , , , , , , , , , , , , , M ..........C , , < n n n ",
"n n n n n n #     : , , , , , &           @ , , , , , , , , , , , , , , , M ..........Z , , j n n n ",
"n n n n n n #     : , , , , , &           @ , , , , , , , , , , , , , , , M ..........Z , , j n n n ",
"n n n n n n , : : M A A A A A b : : j Z Z M x x z . . . Z A A A A A k , , x M M M M M V H H D < < < ",
"n n n n n n < , , Z ..........M , , z .... .n n x       ............z , , z n n n n n V 1.1.H , , , ",
"n n n n n n < , , Z ..........M , , z .... .n n x       ............z , , z n n n n n V 1.1.H , , , ",
"n n n j j j , , , n M M M M M C Z Z C z z z n n b f f f B M M M M M j , , : & & < n n v s s t @ @ @ ",
"n n n , , , , , , z n n n n n Z ....Z , , j n n n h h h n n n n n n j , , #     : n n z , , :       ",
"n n n , , , , , , z n n n n n Z ....Z , , j n n n h h h n n n n n n j , , #     : n n z , , :       ",
"k k k & # # k z z k k k x n n M C C C M M n k k k u u u k k k k k k < , , * & & , k k z M M M b b b ",
", , , .     z n n j , , z n n n n n M ....A , , , , , , , , , , , , , , , , , , , , , z ............",
", , , .     z n n j , , z n n n n n M ....A , , , , , , , , , , , , , , , , , , , , , z ............",
", , , > : : k z z < , , , < < j z z b A A C l l k , , , & & & z n n : & & > , , k n n m A A A A A A ",
", , , n n n < , , , , , #     % , , j n n n n n b , , , .     Z ....:     & , , n ....S n n n n n n ",
", , , n n n < , , , , , #     % , , j n n n n n b , , , .     Z ....:     & , , n ....S n n n n n n ",
"j j j z z z > & & l z z : @ @ & & & , z z z l l j , , , @ @ @ m Z Z &     & , , z Z Z C n n n n n n ",
"n n n , , , @     C ....b , , &     @ , , :     . , , , , , , , , , @     & , , , , , j n n n n n n ",
"n n n , , , @     C ....b , , &     @ , , :     . , , , , , , , , , @     & , , , , , j n n n n n n ",
"n n n , , , : : : B  . .b j j : @ @ & s s t & & & j j j j j j , , , % @ @ > j j j j j l z z z l l l ",
"n n n , , , A ....M n n n n n z , , g 1.1.&.n n n n n n n n n < , , , , , z n n n n n z , , :       ",
"n n n , , , A ....M n n n n n z , , g 1.1.&.n n n n n n n n n < , , , , , z n n n n n z , , :       ",
"n n n , , , A ....M n n n n n z , , g 1.1.&.n n n n n n n n n < , , , , , z n n n n n z , , :       "
};
