/* XPM */
static char *f080177e5aac49cae54b13dde23177baV56fGzYjXSrl6ec9[] = {
/* columns rows colors chars-per-pixel */
"50 50 216 2 ",
"   c #25022D",
".  c #29032E",
"X  c #260732",
"o  c #320F3B",
"O  c #361D38",
"+  c #37223C",
"@  c #261142",
"#  c #291142",
"$  c #251A48",
"%  c #391D42",
"&  c #3B2443",
"*  c #462745",
"=  c #4C344B",
"-  c #4F374F",
";  c #552C55",
":  c #513D54",
">  c #59325A",
",  c #67345A",
"<  c #5E2D76",
"1  c #35427E",
"2  c #56435A",
"3  c #5A5B5B",
"4  c #5B4962",
"5  c #5E5162",
"6  c #504C70",
"7  c #644C65",
"8  c #665666",
"9  c #764D70",
"0  c #765F78",
"q  c #50607E",
"w  c #676768",
"e  c #6E6970",
"r  c #776B76",
"t  c #747474",
"y  c #7C757D",
"u  c #777878",
"i  c #7C7D7D",
"p  c #895266",
"a  c #864273",
"s  c #846F7F",
"d  c #8F7677",
"f  c #B1617E",
"g  c #7F807E",
"h  c #3C3B8F",
"j  c #3C3C92",
"k  c #541F83",
"l  c #4D2484",
"z  c #4E2789",
"x  c #4B2C8A",
"c  c #512787",
"v  c #43338B",
"b  c #42388E",
"n  c #6B3689",
"m  c #3C4390",
"M  c #375899",
"N  c #3A4DA3",
"B  c #3B58B4",
"V  c #3864A7",
"C  c #346DB7",
"Z  c #434797",
"A  c #4F539B",
"S  c #7C7E83",
"D  c #6A7A95",
"F  c #505EA1",
"G  c #4A69A5",
"H  c #4B6EAD",
"J  c #5865A7",
"K  c #6767A8",
"L  c #6878A5",
"P  c #757CB5",
"I  c #3D67C9",
"U  c #3771CF",
"Y  c #3C7BE6",
"T  c #86668B",
"R  c #887B85",
"E  c #9C759A",
"W  c #BD6E89",
"Q  c #977EA3",
"!  c #B26CAA",
"~  c #C97689",
"^  c #5C868D",
"/  c #7F8180",
"(  c #74839E",
")  c #7E8A9E",
"_  c #7484A1",
"`  c #7984A7",
"'  c #3BAFD2",
"]  c #3A85ED",
"[  c #3788EB",
"{  c #3888F1",
"}  c #3D95F0",
"|  c #3BA9EB",
" . c #3CB8E9",
".. c #6D9BC7",
"X. c #5EBBCC",
"o. c #49AFD5",
"O. c #6EAAD4",
"+. c #5B94E3",
"@. c #6AA3E4",
"#. c #79ABE3",
"$. c #3DE1DF",
"%. c #3AF4DF",
"&. c #3AC3E8",
"*. c #3CE9E3",
"=. c #3DF2E2",
"-. c #42CDD3",
";. c #64D9DC",
":. c #47DFE4",
">. c #57E7E0",
",. c #57F3E1",
"<. c #838483",
"1. c #898789",
"2. c #8B8C8C",
"3. c #8E8E92",
"4. c #948D93",
"5. c #8F9291",
"6. c #949494",
"7. c #9A9997",
"8. c #979998",
"9. c #9D9D9C",
"0. c #A09F9B",
"q. c #9EA09F",
"w. c #A3A29D",
"e. c #A8A79D",
"r. c #AAA99E",
"t. c #989BA6",
"y. c #9491B4",
"u. c #9995BC",
"i. c #AF8EAB",
"p. c #A998A6",
"a. c #A78AB8",
"s. c #9FA4A7",
"d. c #A4A4A4",
"f. c #AAA6A3",
"g. c #ACABA4",
"h. c #A6A5AA",
"j. c #A7A9A8",
"k. c #ACACAB",
"l. c #B3ABA7",
"z. c #AEB0AF",
"x. c #B2B1A7",
"c. c #B3B2AD",
"v. c #B9B7AE",
"b. c #A9ABB7",
"n. c #B1AFB4",
"m. c #AFB0B0",
"M. c #A9B4BF",
"N. c #B3B4B2",
"B. c #B8B7B2",
"V. c #B6B8B6",
"C. c #BBBAB4",
"Z. c #B7B9B8",
"A. c #BBBDBB",
"S. c #C99B9F",
"D. c #D4989C",
"F. c #E7939D",
"G. c #F7999B",
"H. c #D695A4",
"J. c #C391B2",
"K. c #CFAFA9",
"L. c #C7B7B6",
"P. c #C0BEB6",
"I. c #C0BFB9",
"U. c #F0A7A3",
"Y. c #BEC0BF",
"T. c #C3C2BD",
"R. c #C9C5BE",
"E. c #F4CDB1",
"W. c #F5D2B4",
"Q. c #9C9DD2",
"!. c #A698CA",
"~. c #91A1D5",
"^. c #B3B7D6",
"/. c #83BDEA",
"(. c #C499C8",
"). c #94C0DA",
"_. c #BFC1C1",
"`. c #BAC4C4",
"'. c #A6C3D9",
"]. c #B7CDDA",
"[. c #8BE6DE",
"{. c #92D2E6",
"}. c #ADD2E3",
"|. c #93F3E4",
" X c #B6F6E7",
".X c #C1C3C3",
"XX c #C8C7C2",
"oX c #C6C8C6",
"OX c #CACAC5",
"+X c #CAC6C9",
"@X c #C6C9C8",
"#X c #CECDC9",
"$X c #CDCDCA",
"%X c #D8C9C6",
"&X c #D0CFCA",
"*X c #C4D0C6",
"=X c #CFD0CE",
"-X c #D5D3C8",
";X c #D2D2CD",
":X c #D6D5D1",
">X c #D5D5D3",
",X c #D8D7D2",
"<X c #DAD9D5",
"1X c #DDDDDA",
"2X c #E1D8C2",
"3X c #E0DFDB",
"4X c #DFE0DE",
"5X c #E2E2DE",
"6X c #E8EAD8",
"7X c #CCF7E7",
"8X c #DBF7EC",
"9X c #E3E3E1",
"0X c #EAEAE7",
"qX c #EFFBE9",
"wX c #F3FAEA",
"eX c #F8FCE8",
/* pixels */
"d.k.XXk.d.d.d.d.d.d.d.1.Y._._._._._._.Y.A.T.:X.X_.T.A.g.B.A._._._._._._._._.k.5.j.j.oX5Xk.d.d.k.c.j.",
"j.j.k.OXN.k.j.j.j.j.j.1.j._._._._._.A.c.x.B..X_._.XX.XA.g.g.A..X_._._._._.A.1.d.k.,XOXOXk.f.I..X:Xk.",
"k.k.k.c.5X#X#XI.B.k.k.d.i .X.X_..X#Xx.x.A..X.X.X_.R..X.X_.c.C.;X:XoXoX.X.Xk.d.;X<XXX;XXXc.XXN.A.5XN.",
"k.k.k.k.g.R.:X#X:X<X#XA.d.#X:XR.c.B.A..X.X.X.X.XA.c..X.X.X.XoX:X#XXX<X5X5X:X;X,X.XN.A.R.T.V.k.g.5XV.",
"k.k.k.k.k.r.A.k.A.:X;X;X&X#X<X;X.X.X.X.X.X.X.XA.;Xr.A..X.X.X.X.X.XA.V.A.V..X.XN.k.k.A.v.x.k.k.k.1XA.",
"k.k.k.k.k.c.R.T.k.k.k.k.k.2.<..X.X.X.X.X.X.XY.B.R.c.c..X.X.X.X.X.X.X.Xk.u k.k.N.N.c.C.OXXXk.k.A.;XA.",
"m.m.m.m.m..XT.R.A.m.m.m.m.k.e m..X.X.X.X.XoXB.B.4XXXT.XX.X.X.X.X.X.X.Xu 8.N.Y.1XoXT.#X;X<Xm.m.Z.,X#X",
"N.N.N.N.N.:XOXOX:XA.N.N.N.N.6.t _..X.X.X.XOXB..X9XOX.Xx.C.@X.X.X.X-Xj.u N.#X;X1XOX#XN.&X;XV.N.N.;X<X",
"N.N.N.N.N.<X.X.X1XR.V.B.:XY.m.w d..X.X#XOXV..X.X9XT..XY.6.r A..X.X2Xe j.,X;XC.XX;XV.N..X,XOXN.N.#X1X",
"V.V.V.V.V.9XA.V..X#X#XA.;XOX;XB.c.#X;X5X;X.X_.@X,XT._..X_.c.r.P.H.F.D.%X;X3XT.T.Z.V.V.V.;X1XV.V.T.XX",
"Z.Z.Z.Z..X5XA.Z.Z.OX;X;X#X.X#X:X&XA.6.<.i u 7 - - = * w i i u f.a.! p.T.#X<XR..XA.Z.Z.Z.:X;XoXZ.Z.T.",
"A.A.A.A.1X#XA.A.A.A..XC..XA.A.N.8.f.j.j.j.y d W.E.E.H.O d.j.3.t.d.p.s.V.XXXX;XT.V.A.A.A.A.XX<XA.A.OX",
"A.A.A.Y.5XV.A.A.A.A.A.A.C..XA.8.c.d.9.9.0.r d U.f ~ ! % 9.9.9.9.9.j.8.e.T.oXA.XXc.A.A.A.A..XR.#XA.A.",
"A.A.A.@X0X_.A.A.A.A.A.:X:X&X#X8.K.f.d.d.7.& p G.W a ; X 5 d.d.p.d.d.g.e..XA.A.#XA.oXA.A.A.Y.OX<X_.A.",
"Y.Y.Y.;X1X_.Y.Y.Y.Y._.5X.X,XR.D.F.D.S.d.= 4.p ~ , < < ; E 7 j.j.k.A.e.5.V._.Y..X;X,X#XY.Y.Y.OX;X:XY.",
"_._._.OXOX_._._._._.oX9XY.k.+XB.J.p.j.g.r 7.y 2 4 7 7 J.9 0 ,X#XOXx.e.d.1._._._.oX&X1X#X_._..X,X9X.X",
".X.XA.;XoX.X.X.X.X.X#X3X.X<.Q ,Xl.R.OXT.k.O ^ X.X.X.O.4 + 8.T.A.L.T.A.k.1.k..X.X.X@X#XOX:XoX.X:X1X#X",
".X.X#X.X.X.X.X.X.X.X#X;X6.6.k.c.R.&Xc.k.k.r S 8X).@.~.& d.k.k.A.L.l.c.k.j.<.A..X.X.X.X.XR.1X,X@X:X=X",
".X.X<X.X.X.X.X.X.X.XOXA.i k.k.k.T.x.e.k.k.y R wX'.@.Q.% k.A.x.B.g.k.e.V.k.1.6..X.X.X.X.X#X&X;X0X1XT.",
".XoXT..X.X.X.X.X.X.X,X1.6.k.k.k.OXk.C.g.z.y 1.qX^.@.Q.& .XA.e.g.k.k.g.g.k.j.t A..X.X.X.X_.B.A.@X.X;X",
".X#X.X.X.X.X.X.X.X=Xf.t k.z.z.N.;Xk.B.7.2 R eXwX].'.^.a.; e 0.k.z.z.z.P.V.N.6.<..X.X.X.XA.c..X.X.X=X",
"_.#X@X.X.X_..X.X.X&Xg 8.N.N.N.z.v.N.3.y 6XeXeXwX X[.)...!.E r k.N.N.N.T.T.A.z.e z..X.X.X.XA..X.X.X.X",
"#X#X.X.X.X.X.X.XOXc.t N.N.N.N.g.e.1.R 6XqXeXeX|.=.=.>.;.` u.i.2 m.N.N.N.c.B.A.k.<..X.XA.R.V.A.x.B.x.",
"1XoX.X_..X.XA..X;Xw d.V.V.V.f.r.d.% l.7X|.eX8X,.=.=.*.=.-.H u., 2 ;XXX;X&Xv.r.r.x.x.XX#XP..X.XA.A.A.",
"9.8.j.XX.XR.R.;XV.V.:Xc.e.e.v.T.c.8  X|.qX7X,.%.$. .} |  .' J i.: ;X,X#XI.x.B.V.B.t 6.9.I.6.6.6.6.6.",
"f.d.C.V.g.c.e.g.c.w..XI.;XB.;X#X2 B./.}. X,.*.:.{.{ { [ [ H c K T e A..XB.c.A.A.k.9.d.j.B.d.d.d.d.d.",
"9.9.9.9.g.I.0.w.d.9.k.A.A.Y.OXV.+ *X#.[  .&.| [  .{ ] U B x l F E 5 A.;X;XA.A.A.5.f.9.w.A.9.9.9.9.k.",
"d.d.d.d.d.#Xc.d.w.k.1.Z.A.A..X.XO `.#.] U { ] { Y B B j b l k F E 5 oX#X#XA.A.9.9.d.d.d.A.d.d.d.d.#X",
"d.d.d.d.d.A.C.d.d.j.6.9.Y.Y._.#X+ `.O.] C { ] ] N h h h v l Z G E 5 OX#X.XY.V.1.j.d.d.d..Xj.d.d.N.T.",
"j.d.d.j.j.j.OXj.j.j.j.i A._._.oXn.5 M.F o.[ /.+.j h b l A J Z a.: Z.OX<X_._.6.9.j.j.d.j.OXj.d.j.A.f.",
"k.j.j.j.j.j.V.k.j.j.j.8.2..X.X.XA.5 ) L m N I I h v z A l x J Q 8 .XT.,X_.k.<.j.j.j.j.j..Xk.j.c..Xk.",
"c.k.k.k.k.k.k.C.k.k.k.j.i N..X.XoXh.r ,Xu.h h v z k l G x K T s .X.XC.oX_.<.9.k.k.k.k..X;Xc.k.#Xc.k.",
"A.k.k.k.k.k.k..Xk.k.k.k.9.i _..X.X.X8 - :Xb.Z x z z z n a.0 o : 2 2 8 t.9.S h.h.k.f.g.k.k.k.N.T.k.A.",
"I.k.k.k.k.k.k.T.k.k.k.k.k.u d..XY.A.V.Z.8 h.` P P P P (.9   .           X 1 M V L d.k.k.k.k.c.k.k.#X",
"V.B.k.k.k.k.k.V.k.k.k.k.k.q.t A..XOX.X_.k.  * > > > > ; .             .   $ M V V L k.k.k.B.k.k.B.OX",
"B.R.N.N.m.N.m.;Xc.N.N.N.N.N.1.x.T.A.A.B.A.t.6 # @ @ @ @ @ # # @ @ # # @ 1 M G G H t.m.m.N.B.N.N..X.X",
"N.&XN.N.N.N.N.B.k.N.N.N.N.N.A.B.A.Y._..X_._._.y._ ( ( D _ _ _ ( _ ( q D _ _ s.B.N.N.N.N.B.c.N.N..XV.",
"V.OXN.V.V.V.V.w.k.V.V.V.V.V.T.6.u .X.X.X.X_._._.T.c.V.A..X.X.X.X.Xk.w N.oX.XC.B.V.V.V.V.k.N.V.V.OXV.",
"V.OXc.V.V.V.V.e.c.V.V.V.oXOXA.k.3 9.d.d.d.d.d.d.f.#Xd.d.d.d.d.d.d.w 2.V.V.B.B.Z.V.V.V.V.k.V.V.Z.#XV.",
"A..Xc.Z.A.A.A.e.B.A.A.V.XXA.A.V.1.2.2.2.2.2.2.2.7.#X7.2.2.2.2.2.2.1.k.A.A.A.OXXXA.A.A.A.k.A.A.A.OXA.",
"A.c.k.A.A.A.A.g.A.A.Y.T.B.A.A.d.d.9.9.9.9.9.9.9.d.;Xf.9.9.9.9.9.9.k.6.A.A.c.A.A.A.V.A.A.V.A.A.A.c.A.",
"A.c.g.A.A.A.A.g.Y.B.B.B..X#X;XA.k.w.0.0.w.w.w.w.f.B.w.w.d.e.w.d.w.w.9.j.A.c.A.A.T.c.V.A.c.A.A.A.c.A.",
"A.N.g.A.A.A.A.g.T.g.x.A.A.A.d.k.#X.Xk.d.d.d.d.d.B.c.d.k.f.d.d.d.d.d.d.6.B.A.A.A.A.A.c.V.B.A.A.A.c.A.",
"_.B.g._._._.A.x.c.g.Y._._.V.1.j.d.k.z.V.j.j.j.j.k.T.f.j.j.d.d.j.j.j.j.9.9._._._.^._.c.e.A.Y._._.B.Y.",
"_.B.c._._._.V.x.C._._._..X5.9.j.j.j.j.k.k.f.j.j.k.T.k.j.j.j.j.j.j.j.j.j.<.A..XA.A.A.A.c.c.T._._.B._.",
".XV.B..X.X.XT.B..X.X.X_.k.1.k.k.k.k.k.k.k.k.k.j.N.XXk.k.k.k.k.k.f.f.j.k.9.7.V.V.A._.A.B.k.g.#X.XB..X",
".XV.A..X.X.XI.oX.X.X_.Y.i d.k.k.k.k.k.k.k.k.c.k.c.A.k.k.k.k.k.k.k.k.k.d.k.i k..X.X.X.X.XY.A.A.Y.c..X",
".XV.A..X.X.X.X.X.X.X_.9.1.k.k.k.k.k.k.k.k.k.k.N.f.e.k.k.k.k.k.k.f.f.k.k.k.d.u _..X.X.X.X.X.X.X&Xc..X",
".XB.A..X,XA..X.X.X_.Z.u d.k.k.k.k.k.k.k.k.k.k.m.k.g.k.k.k.k.c.g.k.k.k.k.k.k./ 9._..X.X.X.X.X.X.XR.oX",
".Xg.T.#XoXY.OX;X:X;XT.k.#X.XV.N.N.N.N.N.N.N.N.N.c.x.N.N.N.k.N.N.c.N.N.c.N.N.d.t V.V.V.N.V.A.Y.B..X1X"
};
