/* XPM */
static char *result[] = {
/* columns rows colors chars-per-pixel */
"50 50 73 1 ",
"  c #0E1417",
". c #0F1518",
"X c #10171A",
"o c #131A1C",
"O c #161D20",
"+ c #181F22",
"@ c #1B2224",
"# c #1D2528",
"$ c #212729",
"% c #242B2D",
"& c #282C2E",
"* c #272E30",
"= c #292F31",
"- c #2C3234",
"; c #2F3538",
": c #32373A",
"> c #383C3E",
", c #393E40",
"< c #3C4245",
"1 c #414547",
"2 c #414648",
"3 c #454A4C",
"4 c #494E51",
"5 c #4D5253",
"6 c #515557",
"7 c #525759",
"8 c #545A5B",
"9 c #595C5E",
"0 c #5E605F",
"q c #5A5F60",
"w c #5E6263",
"e c #616465",
"r c #626768",
"t c #666A6B",
"y c #6A6D6E",
"u c #6F706F",
"i c #6C6F70",
"p c #6D7173",
"a c #737575",
"s c #777877",
"d c #777979",
"f c #7B7D7D",
"g c #7D7F80",
"h c #7E8182",
"j c #828484",
"k c #878887",
"l c #858788",
"z c #868A8A",
"x c #8B8C8C",
"c c #8F908F",
"v c #8B8F90",
"b c #8E9192",
"n c #939595",
"m c #979897",
"M c #939798",
"N c #979998",
"B c #9D9D9C",
"V c #A1A09E",
"C c #9B9FA0",
"Z c #9EA1A1",
"A c #A4A4A4",
"S c #A4A7A8",
"D c #A7A9A9",
"F c #ABABAB",
"G c #AEB0AF",
"H c #AFB0B0",
"J c #B2B3B3",
"K c #B6B8B7",
"L c #B7B9B8",
"P c #BABCBC",
"I c #BDC0BF",
"U c #BFC1C1",
"Y c #C0C3C3",
/* pixels */
"AAVAAAAAAAVkPUUUUUUUUUUUUUUUUUUUYIIIIUFcAAAVVAAAAV",
"AADAAADAAAFkFUUYUUUUUUUUUUUUUUUUYYYYYPlAAFAAFAAAAF",
"DDDDAFDFAFAVgUUYYYYYYYYYYYYYYYYYYYYYYVxAAFFFFAFAFA",
"FFFDFFAFFFFFkBUYYUIYYYYYYYYYYYYYYYYYIaAFFFAFAFFFFF",
"FFFFFFFFFFFFVuPUYYBFYYYYYYYYYYYYYYYYxvFFFFFFFFFFFF",
"HFHFGGFGHFHHHxjUYYUcSYYYYYYYYYYYYYYFdFFHFHFHHHHHHH",
"JHHHHHHHHHHHHFyHYYYYrMYYYYYYYYYYYYYsmHHHHHHHHHHFHH",
"HJJJJHJJJHJHJHmaUYYYP=FYYYYYYYYYYYAiFHJJJHJJHJHKHH",
"JJJJJJJJJJJJJJHeAYYYYb4PYYYYYYYYYL6pJJJJJJJJJJJJJH",
"KKKJJKKKKJKKJKKn0YYYYP-eYYYUYYYYY55JKJKKLJLJLJLJKK",
"LLKKKKKKLLKKKKLJtagdgg3+agdfffg7&;BKLLLLLLLLLLLLKK",
"PLPLPLPPPPLLPPPJmAAAAAm,gAAAAAlO+gVLLLPLPPPLPLPPPP",
"PLLPPPPPLIPPPPPmAVVVVVVe9BVBBm==gAvKPPPPPPPPPPPPPP",
"IIIIPIIIPIPPUPJmAAAVVVVB5VAVV6;nAVAmPPPPPPPPIPPPUP",
"IUIIIIIIIUIPUUnAAAAAAAAA5mAAg2BAAASvLYPUUUYUIIIIUP",
"UUUUUUUUUFkmHAcAAAAAAAAA@8AiOgAAASSCvFCMvMCPIYYYUU",
"YUYYYYPCr&@@&>uBAAAFDSAA%5A4&BFADm5367e82%+4ZPYYYY",
"YYYUCgtiMCufeut45gnBDDFF75F2tAFAi-2gAgIYYJgt8,iLYU",
"UFbgNLYYYYYLfAFFSt=-bFFFj4F3xSx,eBSFFxmYYYIIYPbrAU",
"YYYYYYYYYYYknFHFFFt,*gFFF4A2gg,w-o.%6xiLYYYYYYYYHH",
"YYYYYYYYYYFaFHHHHHHHx,qFH<-,2&..oO .X.3hYYYYYYYYYY",
"YYYYYYYYYYamHHHJHHJHHFg59q ,=o...oo....&SYYYYYYYYY",
"YYYYYYYYYBuHHHJHJHJHHJAA$$,.oo.. .oX....,LYYYYYYYY",
"YYYYYYYYPeAKKKKKKKKJJa5-6-ooo.o.ooooooX. 5IYYYYYYY",
"MMnnnnnnsgKLLLKKLLLLLLJg.O+++OO.oooooooXX.wnnnnnnn",
"CAVAAAAAVcLLPLLPPPLPLPLroO+++O.OoooXooooo.5AAAAVAA",
"CBBBVBBBVmDPIPPPPPPPLzv5&&++OOO.oooooooOX$lVBVBVBV",
"ABAAABAVVDkLIPPIPPIPIC8yy&-*%OOOoooOooOO+lABABABVV",
"AAAAAAAVAAmBPUUPPPUUIIPy+q+;$OOO++++++O+xAAVAAAAAA",
"AAAAAAAAAAAgPUUUYYUULv<MY3+44OO++O+++O$lAAAAAAAAAA",
"AAFAAASSSSDMzUYYUYSp,<HYYqh,q7,,%Ooo&4fFFAAFAFFAAV",
"ABnVFFFFFDDSgJYYYP;OwPYYH5YqFYqpvaixKjBAFFAFFAFxjA",
"FFVluesmFFBABfHne8igIYYYg8Y4zYYM48vJAgFFFFBnlw1gFF",
"FFHFFHc6:&++@@=aJYYYYYYY,8Y52YYYYgO,wnBmj5@%6gFFFH",
"HHHHHHHHVt16iliYYYYYYYYY#qYroSYYYYFgetq645qlHHHHHH",
"HHHHHHHHHHHHHHjcYYYYYYYY,bYH4gYYYYJrAHHHHHHHHJHHJH",
"JJHHKHHHHHJHHHF0LYYYYYYYrYYYI,gYYYhvJJHJJJJJHJJJHH",
"JKKKKKKKKKKKKKJgaYYYYYYBrYUUUS@qLSwHJKKKJKJJKJJKKK",
"KKKLKKKKLKLLKKKF9mAVAAA5iCSSZZ7O3rvLKKKLLKLLLLKKLL",
"LLLLKLLLLLLLLLKKxxxxxxi@glxxxxx,+5SLLLLLLLLLLLLLLL",
"PPPPPPPPLPPPPPPAAVVBBB>&BBVVBVVxt%dPPPPPPPPLPPPPPP",
"PPPPPPPPPPPPPPPnFVVVVc=kVVVVVVVVVx,xPPPPPPUPPPPPPP",
"UPPIPUPUUPPPIPVVAVVVV1uAVVVAVVVAVAAiFIPPUPPPUPUPIP",
"UUIIUUUUUUYUYKxAAAAVfeVAAAAAAAAVAAAmVYUUUUUUUUUUUI",
"UUUUUUUUUUYYYcBAAAABsAAAAAAAAAAFAAAFjPYUYUUYUUUUIU",
"YUYYYYYYYUYYAxAFFAVjAFFAFFAFFAFAAFFABxYYYYYYUYYYYY",
"YYYYYYYYYYYIgAFFFFVFFFFFFFFFFFFFFFFFFfFYYYYYYYYYYY",
"YYYYYYYYYYYBlFFFFFHFFFFFFFFFFFFFFFFFFVsUYYYYYYYYYY",
"YYYYYYYYYYLsAFHHHHHHFHHFGGGGGFFJFHHHHHgBYYYYYYYYYY",
"YYYYYYYYYYxxHHHHHHHHHJHHHJHHJJHGHHHHHHAuIUYYYYYYYY"
};
