/* XPM */
static char *result[] = {
/* columns rows colors chars-per-pixel */
"50 50 72 1 ",
"  c #0D1316",
". c #0F1518",
"X c #10171A",
"o c #131A1C",
"O c #171E20",
"+ c #181F22",
"@ c #1A2124",
"# c #1E2628",
"$ c #21272A",
"% c #242B2D",
"& c #262D30",
"* c #292E31",
"= c #2C3234",
"- c #2F3538",
"; c #303537",
": c #313739",
"> c #353B3D",
", c #383D3F",
"< c #3C4244",
"1 c #414547",
"2 c #404648",
"3 c #44494B",
"4 c #494D4F",
"5 c #4A4F51",
"6 c #4D5254",
"7 c #515556",
"8 c #525759",
"9 c #555A5B",
"0 c #595D5E",
"q c #5E605F",
"w c #5C5F60",
"e c #5D6263",
"r c #616565",
"t c #636768",
"y c #666B6C",
"u c #6A6D6D",
"i c #6F706F",
"p c #6D6F70",
"a c #6E7272",
"s c #727475",
"d c #777877",
"f c #727778",
"g c #76797A",
"h c #7B7D7D",
"j c #7E8282",
"k c #838484",
"l c #878887",
"z c #848788",
"x c #868989",
"c c #8B8D8D",
"v c #8F908F",
"b c #8B8F90",
"n c #8E9292",
"m c #939594",
"M c #959798",
"N c #969999",
"B c #9D9D9C",
"V c #A09F9F",
"C c #A1A09E",
"Z c #9EA1A1",
"A c #A4A4A4",
"S c #A6A9A9",
"D c #ABACAC",
"F c #AEB0AF",
"G c #AFB0B0",
"H c #B2B4B3",
"J c #B6B8B7",
"K c #B7B9B8",
"L c #BABCBC",
"P c #BDC0BF",
"I c #BFC1C1",
"U c #C0C3C3",
/* pixels */
"AAVAACAAAAClPPIIPIIGIIIIIIIIIIPPIIIIIIDbAAAAACAAAA",
"AASAASSAAADlDUIIIIAGIIIIIIIIIIIbIIIIIPlVSASAAAAAAA",
"SSSSDADADADVhIUUILrUUUUUUUUUIIIZbIUUIZcSDASSADADDA",
"DDDSDDDDDADDlBUUUynUUUUUUUUUUIII5IUIIfSSDDSDDDDDDD",
"DDDDDDDDDDDDCiLUL<UIIIUUUUIIUUUUybIIcvDDDDDDDDDDDD",
"GDGDDDGGGDGDDckUZ9UUUIUIUIIIUUUUB9IFdDGDGDGDDGGDGG",
"HDGGGGGGDHHDHDuD5yIUUUUIUUIIUUUUS%msMHGGGGGGGGGGGG",
"HHHHGHGHHGHHGHm0@aIUUUUIfyGUUUUUG+5dDHGHHGGHHHHGHH",
"HHHHHHHHHHHHHHH9%GUUUUL6oo#ZUUUUU9;VHHHHHHHHHHHHHH",
"HHJJJJHJJHHJHJJd:UUUUJ<.Xoo@ZUUUUh1HHJJHJHJHHJJHHJ",
"JJJJJJJJJJKKKKKc&fhhh>..ooOO@yghh77KKKKKJKJJKKKKJJ",
"LLLLLKLLLLLLLKLMwSAAwX.XoooO+&NSAM0LLLKLLLLLLLKLLL",
"LLLLLLLLLKLLLKLcwBZz...ooooo+o8ZVm7KLLLLLLLLLLLLLL",
"LLLLILLJLPPLILHN8BV4X..ooooo++$MVkfMPLPPLPDLLPLPPL",
"IIIIIIPJhIIIIIvA3gA$..Xooooo++ofM:zbHPIPPNnPIPPIPP",
"IIIIIIIIduPIIAvA41VO.oXXoooO++OwfOMZbIIIZ3PIIIIIPI",
"UUUUUUUUL65MPjASM-MOOO XO.O.O+Oy4iSAxDJf&AUUUUUUUU",
"UUUUUUUUII&$umDSDpe&XX OOX.OO+&h3DDDAg2OhUUUUUUUUU",
"UUUUUUUUUUp+%MDDDA,w . O.O.O++<ezDDDD5+>SUUUUUUUUU",
"UUUUUUUUUUUi*:ADDDb>XX XO.OOOX-wDGDDs+3HUUUUUUUUUU",
"UUUUUUUUUUDsZw3zAGGh*OXXoooOo+6GGGMi,mbkUUUUUUUUUU",
"UUUUUUUUUIsMGGzO*umh3*XXO++%%<wBj<O3DHDpGUUUUUUUUU",
"UUUUUUUUIBiHHHHf6353,<XO++@&-<>834wAHHHBpIUUUUUUUU",
"UUUUUUUULrAJJJHJJHJS- ;O++#=#+hHJHJHJHHHpNUUUUUUUU",
"MmmmmmmmdhJKKJDw9866<e#=O+%&8<w59wwcJJKKArmmmmmmMm",
"ZAAAAAAAVcSzu99+%wbKLe$9oo&y+LLSp,+<eehBANAAAAAAVA",
"VVVVBVBBV7+>sJLLLLLLK8S=fe6yybLLLLLLLM6+&mVVBVVVVV",
"VZVVVAVb<&7GPLPPPLPPexF8PPnwK3SPPPPLLLPh,*pVVVVVVA",
"AAAAAAh%hVMBIIIIPPPz>IIfPPnZPb3LPPPPPPJlAm1rVAAAAC",
"AAAAAc9VAAShLIIIPIZ&ZIILIIPIIK=ePPUPPPmVAAAddAAAAA",
"DAAAmhSSSSSNbIIIIH->IUIIIIUUIIaOhUUUUDkAAAASBhDADA",
"DDDAcSSSSSSShHIIIS&fUUUIIIUUUIS=uUUUUkVDDDSDAVVADD",
"DDDDDDDDDDDDCdIIIbgIIIUUUUUUUUULwUUUAkDDDDDDDDDDDD",
"DDDDDDDDGDDDDdCII9LIUIUUUUUUUUUUwHUUsASDDDDDDGDDDD",
"GGGDDGGGGGGGGCiUH9UUUUUUUUUUUUUUnfUnkGDGGGGGHDGGGG",
"GGHGGHGHGGGHGGkmjsUUUUUUUUUUUUUUH-HuSGHGHGGGGGHGGG",
"HHHHHHHHHHHHHHDq1zUUUUUUUUUUUUUUU#tbHHHHHHHHHHHHHH",
"HHJHHHHJJHJJHHJd$cUUUUUUUUUUUUUUU#3GHJJHHHJJJHJHHJ",
"JJJJJJJJJJJJJJJl+uAAACVASZAZAZAZZ+5JJKJKJJJJJJJJJJ",
"JLJLJLJJJJLJJJJk+6cvccccbbbcccccj+2LKKKKJJLJJJJJJJ",
"LLLLLLLLJLLLLLLm%kVVVVVVVVVVVVVVV*7LLLLLLLLLJLJLLL",
"LLLLLLLLLLLLLLLm0hVVVVVVVVVVVVVCV;cDLLLLLLILLIILPL",
"PLPPLPPPILILPLVVkqAAVCCAVVVAVVCCv4AcLPLIILLLLLLIPP",
"PPPPPIPIIIIIIJcAVqAAVCAAACAAAAAAilAMVIIIIIIIIIIIPP",
"UUIIIIIIIIUPUvVAAiVAACAAAADAAAAArAADkJUIIIUIIIIUII",
"UUUUUUUUUUUUDlADDllADDDADAADDADDiDDAVcUUUUUUUIIUUU",
"UUUUUUUUUUUPhADDDAiDDDDDDDDDDDDAkDDDDhDUUUUUUUUUUU",
"UUUUUUUUUUPVlDDDDDkDDDDDDGDDDDDMVDDDGCdIUUUUUUUUUU",
"UUUUUUUUUUKdAGDGGDVDGGGDDHDDDHDVGGDGGDkVUUUUUUUUUU",
"UUUUUUUUUUclGGGHHHDGHDHHHDHHHGGDGGGGGHCuPIUUUUUUUU"
};
